<?xml version="1.0" encoding="UTF-8"?> <svg xmlns="http://www.w3.org/2000/svg" xmlns:xlink="http://www.w3.org/1999/xlink" id="FRONT" viewBox="0 0 337.57 140.81"><defs><style>.cls-1{fill:#c4960c;}.cls-10,.cls-2{fill:#fff;}.cls-3{fill:#00a84f;}.cls-4{fill:url(#linear-gradient);}.cls-5{fill:url(#linear-gradient-2);}.cls-6{fill:url(#linear-gradient-3);}.cls-7{fill:url(#linear-gradient-4);}.cls-8{fill:url(#linear-gradient-5);}.cls-9{fill:url(#linear-gradient-6);}.cls-10{isolation:isolate;}.cls-11{fill:url(#linear-gradient-7);}.cls-12{fill:url(#linear-gradient-8);}.cls-13{fill:url(#linear-gradient-9);}.cls-14{fill:url(#linear-gradient-10);}.cls-15{fill:url(#linear-gradient-11);}.cls-16{fill:url(#linear-gradient-12);}.cls-17{fill:#00511f;}</style><linearGradient id="linear-gradient" x1="258.64" y1="16.85" x2="258.64" y2="133.83" gradientUnits="userSpaceOnUse"><stop offset="0" stop-color="#00a84f"></stop><stop offset="1" stop-color="#00511f"></stop></linearGradient><linearGradient id="linear-gradient-2" x1="166.7" y1="37.52" x2="166.7" y2="133.83" xlink:href="#linear-gradient"></linearGradient><linearGradient id="linear-gradient-3" x1="46.23" y1="15.88" x2="46.23" y2="133.73" xlink:href="#linear-gradient"></linearGradient><linearGradient id="linear-gradient-4" x1="116.32" y1="36.33" x2="116.32" y2="133.84" xlink:href="#linear-gradient"></linearGradient><linearGradient id="linear-gradient-5" x1="300.01" y1="36.33" x2="300.01" y2="133.84" xlink:href="#linear-gradient"></linearGradient><linearGradient id="linear-gradient-6" x1="215.31" y1="35.18" x2="215.31" y2="136.01" xlink:href="#linear-gradient"></linearGradient><linearGradient id="linear-gradient-7" x1="258.64" y1="55.51" x2="258.64" y2="130.65" xlink:href="#linear-gradient"></linearGradient><linearGradient id="linear-gradient-8" x1="166.7" y1="55.51" x2="166.7" y2="130.66" xlink:href="#linear-gradient"></linearGradient><linearGradient id="linear-gradient-9" x1="46.23" y1="55.51" x2="46.23" y2="130.66" xlink:href="#linear-gradient"></linearGradient><linearGradient id="linear-gradient-10" x1="116.32" y1="55.51" x2="116.32" y2="130.66" xlink:href="#linear-gradient"></linearGradient><linearGradient id="linear-gradient-11" x1="300.01" y1="55.51" x2="300.01" y2="130.66" xlink:href="#linear-gradient"></linearGradient><linearGradient id="linear-gradient-12" x1="215.31" y1="55.51" x2="215.31" y2="130.65" xlink:href="#linear-gradient"></linearGradient></defs><title>Mazola_Logo_4C</title><path class="cls-1" d="M86.44,22.85S99.74,3.6,145.49,9.17c40.63,4.95,60.64,22.29,95.75,0,0,0-19.68,34.45-74.47,18.74S108.78,18.79,86.44,22.85Z" transform="translate(0 0)"></path><path class="cls-2" d="M86.4,15.23S100.65-3.38,146.06,4.29c40.33,6.82,59.45,25.06,95.64,4.41,0,0-21.4,33.5-75.33,15.29S108.92,12.21,86.4,15.23Z" transform="translate(0 0)"></path><path class="cls-3" d="M86.4,12.8s14.25-18.62,59.66-11c40.33,6.82,59.45,25.06,95.64,4.41,0,0-21.4,33.51-75.33,15.3S108.92,9.78,86.4,12.8Z" transform="translate(0 0)"></path><path class="cls-4" d="M248,133.83v-117h17.15a5.58,5.58,0,0,1,4.07,5.78c0,4.88,0,111.2,0,111.2Z" transform="translate(0 0)"></path><path class="cls-5" d="M164,58.43c.92-2.7,1.72-5.23-.91-5.29-6.77-.15-13.2.19-16.6,0V37.52h40.72a85.49,85.49,0,0,1-.68,15.62c-.29,2-1.32,4-1.8,5.8-1.25,4.63-15.71,51.6-15.71,51.6-.75,2.31-1.48,5.51.84,5.54h16.77l.11,17.75H146.43a168.33,168.33,0,0,1-.2-18C146.41,107.93,164,58.43,164,58.43Z" transform="translate(0 0)"></path><path class="cls-6" d="M36,133.73,29,76.45S28,125,27.78,129.3c0,1-.12,4.43-3.14,4.43H4.91L10.47,15.89H34.09s3.76-.39,4.5,4.13C39,22.41,46,74.09,46,74.09s6-49.17,6.5-53.87,5.69-4.33,5.69-4.33H80.66l6.87,114.25a3.08,3.08,0,0,1-3.27,3.59H64.82L62.9,76.45l-5.77,52.84s-.38,4.46-3,4.44Z" transform="translate(0 0)"></path><path class="cls-7" d="M118.09,133.83h22.8l-.43-65C140.09,45,139,36.33,114.34,36.33c-7.15,0-14.84,1.28-21.66,5.59l0,19.51c6.15-7.68,24.15-11.81,25.5-2.79v9c-5,0-25.26,6.72-25.89,20.59-.4,8.7-1.59,28.78,1.4,37.67,2,6,6.35,7.92,13.18,7.92,2.19.09,7.52-.24,11.19-3.74Zm.08-14.05c-.91,0-3.47.32-4.66-3.89-.65-2.3-1.75-26.72.43-29.62s4.23-2.65,4.23-2.65Z" transform="translate(0 0)"></path><path class="cls-8" d="M301.79,133.83h22.79l-.43-65C323.78,45,322.65,36.33,298,36.33c-7.15,0-14.86,1.28-21.66,5.59l0,19.51c6.14-7.68,24.14-11.81,25.49-2.79v9c-5,0-25.26,6.72-25.89,20.59-.4,8.7-1.59,28.78,1.39,37.67,2,6,6.36,7.92,13.2,7.92,2.18.09,7.51-.24,11.19-3.74Zm.08-14.05c-.92,0-3.48.32-4.66-3.89-.66-2.3-1.75-26.72.43-29.62s4.23-2.65,4.23-2.65Z" transform="translate(0 0)"></path><path class="cls-9" d="M241.72,68.83c-.86-14-4.82-24-10.37-28.89-3.64-3.23-9.07-4.8-16-4.75s-12.39,1.52-16,4.75c-5.55,4.92-9.51,14.91-10.37,28.89-1,13.6.19,33,.19,33,.35,11,3.67,23.37,8.82,28.87,3.77,4,10.93,5.42,17.4,5.34,6.47.08,13.63-1.31,17.41-5.34,5.14-5.5,8.46-17.87,8.81-28.87C241.53,101.79,242.73,82.43,241.72,68.83Zm-21,35.94c-.21,7.86-1.24,12.46-5.6,12.49-3.86,0-5.17-4.14-5.27-12.29V64.42c.22-7.86,1.24-12.46,5.6-12.49,3.86,0,5.17,4.14,5.27,12.29Z" transform="translate(0 0)"></path><path class="cls-2" d="M271.56,133.83c0-1.06,0-106.37,0-111.18a7.91,7.91,0,0,0-5.88-8.06l-.25-.06H245.72V136.14h25.84Z" transform="translate(0 0)"></path><path class="cls-2" d="M170.65,113.77a12.33,12.33,0,0,1,.6-2.52c.6-2,14.5-47.1,15.73-51.71l.69-2a20.76,20.76,0,0,0,1.18-4.05,83.81,83.81,0,0,0,.8-11.88c0-2.45-.09-4.07-.1-4.21l-.13-2.18h-45.2V55.33l2.17.12c1.77.09,4.24.06,7.1,0l9,0c-.16.7-.49,1.67-.68,2.23-1.83,5.16-17.74,50.06-17.91,58.07-.14,2-.19,4.21-.19,6.38,0,5.9.37,11.53.39,11.85l.14,2.16h44.82L189,113.77Z" transform="translate(0 0)"></path><path class="cls-2" d="M89.83,130l-7-116.4H58.3c-3-.2-7.6,1.33-8.15,6.39-.3,2.78-2.55,21.4-4.32,36-2.06-15.21-4.73-34.83-5-36.31-.78-4.74-4.4-6.21-6.79-6.07H8.27L2.49,136H24.64c1.56,0,5.2-.64,5.44-6.58.08-1.8.3-10.89.54-21C32.17,121.07,34,136,34,136H54.16c3.25,0,5-3.27,5.27-6.55,0,0,1-9.58,2.25-20.59.41,12.24.91,27.14.91,27.14H84.26a5.45,5.45,0,0,0,4.28-1.75A5.9,5.9,0,0,0,89.83,130Z" transform="translate(0 0)"></path><path class="cls-2" d="M143.21,136.14l-.44-67.29C142.39,44.7,141.1,34,114.34,34c-9,0-16.66,2-22.89,5.95l-1.07.68,0,27.35,4.1-5.13c3.75-4.69,13.27-8.15,18.53-6.73,2.21.59,2.7,1.83,2.85,2.75v6.72C108.2,67,90.64,74.08,90,88.13L89.92,90c-.2,4.3-.48,10.23-.48,16.26,0,7.66.45,15.49,2.09,20.36,2.82,8.42,9.7,9.5,15.37,9.5a20.26,20.26,0,0,0,8.89-1.76v1.76Z" transform="translate(0 0)"></path><path class="cls-2" d="M244,68.66v0h0Zm0,0c-.86-14-4.82-24.86-11.14-30.47-4-3.59-10-5.38-17.58-5.33s-13.51,1.74-17.56,5.33c-6.33,5.61-10.29,16.43-11.15,30.48-1,13.57.15,32.45.2,33.24.33,10.39,3.38,23.84,9.44,30.31,5.25,5.62,15.11,6.12,19.11,6.07s13.79-.45,19.06-6.07c6.06-6.47,9.1-19.92,9.44-30.37,0-.51.6-9.85.6-20.06C244.44,77.38,244.33,72.79,244,68.68Zm-25.64,36c-.26,9.42-1.84,10.22-3.3,10.23-.77,0-2.83,0-3-10V64.42c.26-9.37,1.84-10.17,3.31-10.18.77,0,2.82,0,2.94,10C218.39,64.25,218.38,104.22,218.38,104.72Z" transform="translate(0 0)"></path><path class="cls-10" d="M164,58.43c.92-2.7,1.72-5.23-.91-5.29-6.77-.15-13.2.19-16.6,0V37.52h40.72a85.49,85.49,0,0,1-.68,15.62c-.29,2-1.32,4-1.8,5.8-1.25,4.63-15.71,51.6-15.71,51.6-.75,2.31-1.48,5.51.84,5.54h16.77l.11,17.75H146.43a168.33,168.33,0,0,1-.2-18C146.41,107.93,164,58.43,164,58.43Z" transform="translate(0 0)"></path><path class="cls-10" d="M36,133.73,29,76.45S28,125,27.78,129.3c0,1-.12,4.43-3.14,4.43H4.91L10.47,15.89H34.09s3.76-.39,4.5,4.13C39,22.41,46,74.09,46,74.09s6-49.17,6.5-53.87,5.69-4.33,5.69-4.33H80.66l6.87,114.25a3.08,3.08,0,0,1-3.27,3.59H64.82L62.9,76.45l-5.77,52.84s-.38,4.46-3,4.44Z" transform="translate(0 0)"></path><path class="cls-10" d="M118.09,133.83h22.8l-.43-65C140.09,45,139,36.33,114.34,36.33c-7.15,0-14.84,1.28-21.66,5.59l0,19.51c6.15-7.68,24.15-11.81,25.5-2.79v9c-5,0-25.26,6.72-25.89,20.59-.4,8.7-1.59,28.78,1.4,37.67,2,6,6.35,7.92,13.18,7.92,2.19.09,7.52-.24,11.19-3.74Zm.08-14.05c-.91,0-3.47.32-4.66-3.89-.65-2.3-1.75-26.72.43-29.62s4.23-2.65,4.23-2.65Z" transform="translate(0 0)"></path><path class="cls-10" d="M301.79,133.83h22.79l-.43-65C323.78,45,322.65,36.33,298,36.33c-7.15,0-14.86,1.28-21.66,5.59l0,19.51c6.14-7.68,24.14-11.81,25.49-2.79v9c-5,0-25.26,6.72-25.89,20.59-.4,8.7-1.59,28.78,1.39,37.67,2,6,6.36,7.92,13.2,7.92,2.18.09,7.51-.24,11.19-3.74Zm.08-14.05c-.92,0-3.48.32-4.66-3.89-.66-2.3-1.75-26.72.43-29.62s4.23-2.65,4.23-2.65Z" transform="translate(0 0)"></path><path class="cls-1" d="M269.06,136.33c0-1.07,0-106.37,0-111.19a7.88,7.88,0,0,0-5.88-8l-.24-.06H243.22V138.64h25.84Z" transform="translate(0 0)"></path><path class="cls-1" d="M168.15,116.27a12.37,12.37,0,0,1,.6-2.53c.6-1.94,14.5-47.09,15.74-51.7l.68-2a20.46,20.46,0,0,0,1.18-4,84,84,0,0,0,.8-11.88c0-2.45-.09-4.07-.1-4.22l-.13-2.17h-45.2V57.82l2.18.12c1.76.1,4.24.06,7.1,0l9,0a22.16,22.16,0,0,1-.67,2.23c-1.84,5.17-17.74,50.07-17.92,58.08-.13,2-.18,4.2-.18,6.38,0,5.89.36,11.53.39,11.85l.14,2.16H186.6l-.15-22.37Z" transform="translate(0 0)"></path><path class="cls-1" d="M87.34,132.47l-7-116.4H55.81c-3-.21-7.6,1.32-8.15,6.39-.3,2.77-2.55,21.4-4.32,36-2.06-15.22-4.72-34.83-5-36.31-.77-4.75-4.39-6.22-6.78-6.08H5.78L0,138.53H22.15c1.55,0,5.2-.64,5.44-6.57.08-1.81.3-10.89.54-21,1.54,12.64,3.38,27.6,3.38,27.6H51.67c3.25,0,5-3.27,5.27-6.55,0,0,1-9.57,2.25-20.59.4,12.25.9,27.14.9,27.14H81.77a5.45,5.45,0,0,0,4.28-1.75A5.88,5.88,0,0,0,87.34,132.47Z" transform="translate(0 0)"></path><path class="cls-1" d="M140.72,138.64l-.44-67.29c-.38-24.16-1.67-34.83-28.43-34.83-9,0-16.66,2-22.89,5.95l-1.08.68.05,27.35L92,65.37c3.74-4.69,13.26-8.15,18.53-6.73,2.21.59,2.69,1.82,2.85,2.74V68.1c-7.7,1.35-25.25,8.47-25.9,22.53l-.08,1.89c-.2,4.3-.49,10.22-.49,16.26,0,7.66.46,15.49,2.09,20.36,2.83,8.42,9.71,9.5,15.38,9.5a20.25,20.25,0,0,0,8.88-1.77v1.77Z" transform="translate(0 0)"></path><path class="cls-1" d="M324.41,138.64,324,71.35c-.37-24.16-1.66-34.83-28.42-34.83-9,0-16.67,2-22.89,5.95l-1.08.68.05,27.35,4.1-5.13c3.74-4.69,13.26-8.15,18.52-6.73,2.22.59,2.7,1.82,2.86,2.74V68.1c-7.7,1.35-25.25,8.47-25.89,22.53l-.09,1.88c-.2,4.31-.48,10.24-.48,16.28,0,7.66.45,15.48,2.08,20.35,2.83,8.42,9.71,9.5,15.38,9.5a20.25,20.25,0,0,0,8.88-1.77v1.77Z" transform="translate(0 0)"></path><path class="cls-1" d="M241.53,71.16h0v0Zm0,0c-.86-14-4.82-24.86-11.15-30.46-4-3.59-9.95-5.38-17.58-5.34s-13.51,1.75-17.55,5.33C188.92,46.32,185,57.14,184.1,71.19c-1,13.57.14,32.45.19,33.24.33,10.39,3.38,23.84,9.44,30.3,5.26,5.62,15.12,6.13,19.11,6.08s13.8-.46,19.06-6.08c6.06-6.47,9.1-19.91,9.44-30.37,0-.51.6-9.84.6-20.06C241.94,79.88,241.83,75.28,241.53,71.17Zm-25.65,36c-.25,9.42-1.84,10.22-3.3,10.23-.77,0-2.82,0-3-10V66.92c.27-9.37,1.85-10.17,3.31-10.18.78,0,2.82,0,3,10C215.9,66.75,215.88,106.71,215.88,107.21Z" transform="translate(0 0)"></path><path class="cls-1" d="M269.06,133.83c0-1.06,0-106.37,0-111.18a7.9,7.9,0,0,0-5.88-8.06l-.24-.06H243.22V136.14h25.84Z" transform="translate(0 0)"></path><path class="cls-1" d="M168.15,113.77a12.33,12.33,0,0,1,.6-2.52c.6-2,14.5-47.1,15.74-51.71l.68-2a20.76,20.76,0,0,0,1.18-4.05,83.81,83.81,0,0,0,.8-11.88c0-2.45-.09-4.07-.1-4.21l-.13-2.18h-45.2V55.33l2.18.12c1.76.09,4.24.06,7.1,0l9,0a23,23,0,0,1-.67,2.23c-1.84,5.16-17.74,50.06-17.92,58.07-.13,2-.18,4.21-.18,6.38,0,5.9.36,11.53.39,11.85l.14,2.16H186.6l-.15-22.37Z" transform="translate(0 0)"></path><path class="cls-1" d="M87.34,130l-7-116.4H55.81c-3-.2-7.6,1.33-8.15,6.39-.3,2.78-2.55,21.4-4.32,36-2.06-15.21-4.72-34.83-5-36.31-.77-4.74-4.39-6.21-6.78-6.07H5.78L0,136H22.15c1.55,0,5.2-.64,5.44-6.58.08-1.8.3-10.89.54-21C29.67,121.07,31.51,136,31.51,136H51.67c3.25,0,5-3.27,5.27-6.55,0,0,1-9.58,2.25-20.59.4,12.24.9,27.14.9,27.14H81.77a5.49,5.49,0,0,0,4.28-1.75A5.9,5.9,0,0,0,87.34,130Z" transform="translate(0 0)"></path><path class="cls-1" d="M140.72,136.14l-.44-67.29C139.9,44.7,138.61,34,111.85,34c-9,0-16.66,2-22.89,5.95l-1.08.68L87.93,68,92,62.87c3.74-4.69,13.26-8.15,18.53-6.73,2.21.59,2.69,1.83,2.85,2.75v6.72c-7.7,1.35-25.25,8.47-25.9,22.52L87.43,90c-.2,4.3-.49,10.23-.49,16.26,0,7.66.46,15.49,2.09,20.36,2.83,8.42,9.71,9.5,15.38,9.5a20.2,20.2,0,0,0,8.88-1.76v1.76Z" transform="translate(0 0)"></path><path class="cls-1" d="M324.41,136.14,324,68.85C323.59,44.7,322.3,34,295.54,34c-9,0-16.67,2-22.89,5.95l-1.08.68L271.62,68l4.1-5.13c3.74-4.69,13.26-8.15,18.52-6.73,2.22.59,2.7,1.83,2.86,2.74v6.73c-7.7,1.35-25.25,8.47-25.89,22.52L271.12,90c-.2,4.3-.48,10.24-.48,16.28,0,7.66.45,15.47,2.08,20.34,2.83,8.42,9.71,9.5,15.38,9.5a20.2,20.2,0,0,0,8.88-1.76v1.76Z" transform="translate(0 0)"></path><path class="cls-1" d="M241.53,68.66v0h0Zm0,0c-.86-14-4.82-24.86-11.15-30.47-4-3.59-9.95-5.38-17.58-5.33s-13.51,1.74-17.55,5.33C188.92,43.82,185,54.64,184.1,68.69c-1,13.57.14,32.45.19,33.24.33,10.39,3.38,23.84,9.44,30.31,5.26,5.62,15.12,6.12,19.11,6.07s13.8-.45,19.06-6.07c6.06-6.47,9.1-19.92,9.44-30.37,0-.51.6-9.85.6-20.06C241.94,77.38,241.83,72.79,241.53,68.68Zm-25.65,36c-.25,9.42-1.84,10.22-3.3,10.23-.77,0-2.82,0-3-10V64.42c.27-9.37,1.85-10.17,3.31-10.18.78,0,2.82,0,3,10C215.9,64.25,215.88,104.22,215.88,104.72Z" transform="translate(0 0)"></path><path class="cls-2" d="M271.56,133.83c0-1.06,0-106.37,0-111.18a7.91,7.91,0,0,0-5.88-8.06l-.25-.06H245.72V136.14h25.84Z" transform="translate(0 0)"></path><path class="cls-2" d="M170.65,113.77a12.33,12.33,0,0,1,.6-2.52c.6-2,14.5-47.1,15.73-51.71l.69-2a20.76,20.76,0,0,0,1.18-4.05,83.81,83.81,0,0,0,.8-11.88c0-2.45-.09-4.07-.1-4.21l-.13-2.18h-45.2V55.33l2.17.12c1.77.09,4.24.06,7.1,0l9,0c-.16.7-.49,1.67-.68,2.23-1.83,5.16-17.74,50.06-17.91,58.07-.14,2-.19,4.21-.19,6.38,0,5.9.37,11.53.39,11.85l.14,2.16h44.82L189,113.77Z" transform="translate(0 0)"></path><path class="cls-2" d="M89.83,130l-7-116.4H58.3c-3-.2-7.6,1.33-8.15,6.39-.3,2.78-2.55,21.4-4.32,36-2.06-15.21-4.73-34.83-5-36.31-.78-4.74-4.4-6.21-6.79-6.07H8.27L2.49,136H24.64c1.56,0,5.2-.64,5.44-6.58.08-1.8.3-10.89.54-21C32.17,121.07,34,136,34,136H54.16c3.25,0,5-3.27,5.27-6.55,0,0,1-9.58,2.25-20.59.41,12.24.91,27.14.91,27.14H84.26a5.45,5.45,0,0,0,4.28-1.75A5.9,5.9,0,0,0,89.83,130Z" transform="translate(0 0)"></path><path class="cls-2" d="M143.21,136.14l-.44-67.29C142.39,44.7,141.1,34,114.34,34c-9,0-16.66,2-22.89,5.95l-1.07.68,0,27.35,4.1-5.13c3.75-4.69,13.27-8.15,18.53-6.73,2.21.59,2.7,1.83,2.85,2.75v6.72C108.2,67,90.64,74.08,90,88.13L89.92,90c-.2,4.3-.48,10.23-.48,16.26,0,7.66.45,15.49,2.09,20.36,2.82,8.42,9.7,9.5,15.37,9.5a20.26,20.26,0,0,0,8.89-1.76v1.76Z" transform="translate(0 0)"></path><path class="cls-2" d="M326.9,136.14l-.44-67.29C326.08,44.7,324.8,34,298,34c-9,0-16.67,2-22.9,5.95l-1.07.68,0,27.35,4.1-5.13c3.75-4.69,13.27-8.15,18.53-6.73,2.21.59,2.7,1.83,2.85,2.74v6.73c-7.7,1.35-25.25,8.47-25.89,22.52L273.62,90c-.21,4.3-.49,10.24-.49,16.28,0,7.66.45,15.47,2.09,20.34,2.83,8.42,9.7,9.5,15.38,9.5a20.22,20.22,0,0,0,8.88-1.76v1.76Z" transform="translate(0 0)"></path><path class="cls-2" d="M244,68.66v0h0Zm0,0c-.86-14-4.82-24.86-11.14-30.47-4-3.59-10-5.38-17.58-5.33s-13.51,1.74-17.56,5.33c-6.33,5.61-10.29,16.43-11.15,30.48-1,13.57.15,32.45.2,33.24.33,10.39,3.38,23.84,9.44,30.31,5.25,5.62,15.11,6.12,19.11,6.07s13.79-.45,19.06-6.07c6.06-6.47,9.1-19.92,9.44-30.37,0-.51.6-9.85.6-20.06C244.44,77.38,244.33,72.79,244,68.68Zm-25.64,36c-.26,9.42-1.84,10.22-3.3,10.23-.77,0-2.83,0-3-10V64.42c.26-9.37,1.84-10.17,3.31-10.18.77,0,2.82,0,2.94,10C218.39,64.25,218.38,104.22,218.38,104.72Z" transform="translate(0 0)"></path><path class="cls-11" d="M248,133.83v-117h17.15a5.58,5.58,0,0,1,4.07,5.78c0,4.88,0,111.2,0,111.2Z" transform="translate(0 0)"></path><path class="cls-12" d="M164,58.43c.92-2.7,1.72-5.23-.91-5.29-6.77-.15-13.2.19-16.6,0V37.52h40.72a85.49,85.49,0,0,1-.68,15.62c-.29,2-1.32,4-1.8,5.8-1.25,4.63-15.71,51.6-15.71,51.6-.75,2.31-1.48,5.51.84,5.54h16.77l.11,17.75H146.43a168.33,168.33,0,0,1-.2-18C146.41,107.93,164,58.43,164,58.43Z" transform="translate(0 0)"></path><path class="cls-13" d="M36,133.73,29,76.45S28,125,27.78,129.3c0,1-.12,4.43-3.14,4.43H4.91L10.47,15.89H34.09s3.76-.39,4.5,4.13C39,22.41,46,74.09,46,74.09s6-49.17,6.5-53.87,5.69-4.33,5.69-4.33H80.66l6.87,114.25a3.08,3.08,0,0,1-3.27,3.59H64.82L62.9,76.45l-5.77,52.84s-.38,4.46-3,4.44Z" transform="translate(0 0)"></path><path class="cls-14" d="M118.09,133.83h22.8l-.43-65C140.09,45,139,36.33,114.34,36.33c-7.15,0-14.84,1.28-21.66,5.59l0,19.51c6.15-7.68,24.15-11.81,25.5-2.79v9c-5,0-25.26,6.72-25.89,20.59-.4,8.7-1.59,28.78,1.4,37.67,2,6,6.35,7.92,13.18,7.92,2.19.09,7.52-.24,11.19-3.74Zm.08-14.05c-.91,0-3.47.32-4.66-3.89-.65-2.3-1.75-26.72.43-29.62s4.23-2.65,4.23-2.65Z" transform="translate(0 0)"></path><path class="cls-15" d="M301.79,133.83h22.79l-.43-65C323.78,45,322.65,36.33,298,36.33c-7.15,0-14.86,1.28-21.66,5.59l0,19.51c6.14-7.68,24.14-11.81,25.49-2.79v9c-5,0-25.26,6.72-25.89,20.59-.4,8.7-1.59,28.78,1.39,37.67,2,6,6.36,7.92,13.2,7.92,2.18.09,7.51-.24,11.19-3.74Zm.08-14.05c-.92,0-3.48.32-4.66-3.89-.66-2.3-1.75-26.72.43-29.62s4.23-2.65,4.23-2.65Z" transform="translate(0 0)"></path><path class="cls-16" d="M241.72,68.83c-.86-14-4.82-24-10.37-28.89-3.64-3.23-9.07-4.8-16-4.75s-12.39,1.52-16,4.75c-5.55,4.92-9.51,14.91-10.37,28.89-1,13.6.19,33,.19,33,.35,11,3.67,23.37,8.82,28.87,3.77,4,10.93,5.42,17.4,5.34,6.47.08,13.63-1.31,17.41-5.34,5.14-5.5,8.46-17.87,8.81-28.87C241.53,101.79,242.73,82.43,241.72,68.83Zm-21,35.94c-.21,7.86-1.24,12.46-5.6,12.49-3.86,0-5.17-4.14-5.27-12.29V64.42c.22-7.86,1.24-12.46,5.6-12.49,3.86,0,5.17,4.14,5.27,12.29Z" transform="translate(0 0)"></path><path class="cls-17" d="M337.57,134.09a4.64,4.64,0,1,1-4.6-4.53A4.54,4.54,0,0,1,337.57,134.09Zm-8.12,0a3.51,3.51,0,0,0,3.52,3.6,3.46,3.46,0,0,0,3.45-3.58,3.49,3.49,0,1,0-7,0Zm2.78,2.34h-1.05v-4.52a11.44,11.44,0,0,1,1.74-.14,2.4,2.4,0,0,1,1.54.36,1.12,1.12,0,0,1,.47,1,1.17,1.17,0,0,1-.94,1.08v.05c.44.14.66.5.8,1.11a4.42,4.42,0,0,0,.33,1.1H334a3.6,3.6,0,0,1-.36-1.1c-.08-.47-.36-.69-.93-.69h-.5Zm0-2.54h.49c.58,0,1.05-.19,1.05-.66s-.3-.69-1-.69a2.26,2.26,0,0,0-.57.06Z" transform="translate(0 0)"></path></svg> 