<?xml version="1.0" encoding="UTF-8"?> <svg xmlns="http://www.w3.org/2000/svg" xmlns:xlink="http://www.w3.org/1999/xlink" viewBox="0 0 1115.32 280.99"><defs><style>.cls-1{fill:#221f1f;}.cls-2{fill:#f7be00;}.cls-10,.cls-3,.cls-6{font-size:25px;}.cls-10,.cls-15,.cls-3,.cls-6{fill:#054c3a;}.cls-10,.cls-14,.cls-3,.cls-6{font-family:MuseoSlab-700, Museo Slab;}.cls-10,.cls-14,.cls-15,.cls-3,.cls-6{font-weight:700;}.cls-3{letter-spacing:0.2em;}.cls-4{letter-spacing:0.19em;}.cls-5{letter-spacing:0.2em;}.cls-6{letter-spacing:0.19em;}.cls-7{letter-spacing:0.2em;}.cls-8{letter-spacing:0.19em;}.cls-9{letter-spacing:0.2em;}.cls-10{letter-spacing:0.2em;}.cls-11{letter-spacing:0.19em;}.cls-12{letter-spacing:0.2em;}.cls-13{fill:#f3f3f3;}.cls-14{font-size:161.22px;fill:#ce2028;letter-spacing:0.04em;}.cls-15{font-size:31.44px;font-family:HelveticaNeue-Bold, Helvetica Neue;}.cls-16{letter-spacing:-0.02em;}.cls-17{letter-spacing:-0.03em;}.cls-18{letter-spacing:0.02em;}</style></defs><title>Asset 2</title><g id="Layer_2" data-name="Layer 2"><g id="TYPE"><path class="cls-1" d="M1034.84,19.46h-11.26v-12h-3.83V0h18.93V7.42h-3.84Zm-8.72-2.53h6.19v-12h3.84V2.53h-13.87V4.89h3.84Z"/><rect class="cls-2" x="1015.64" y="84.89" width="27.15" height="76.69"/><path class="cls-1" d="M1047.58,167.25h-36.73V69.32a18.36,18.36,0,0,1,8.9-15.74V8.72h18.93V53.58a18.36,18.36,0,0,1,8.9,15.74Zm-34.2-2.53h31.67V69.32a15.85,15.85,0,0,0-8.24-13.9l-.66-.36V11.26h-13.87v43.8l-.66.36a15.85,15.85,0,0,0-8.24,13.9Z"/><text class="cls-3" transform="translate(954.39 196.24) scale(0.58)">EXTRA VI<tspan class="cls-4" x="160.65" y="0">R</tspan><tspan class="cls-5" x="183.4" y="0">GIN</tspan></text><text class="cls-6" transform="translate(938.55 220.92)">O<tspan class="cls-7" x="25.35" y="0">LIVE </tspan><tspan x="116" y="0">O</tspan><tspan class="cls-7" x="141.35" y="0">IL</tspan></text><text class="cls-3" transform="translate(36.19 194.16) scale(0.58)">MAZ<tspan class="cls-8" x="73.55" y="0">O</tspan><tspan class="cls-9" x="98.9" y="0">LA</tspan><tspan x="142.47" y="-10.29">®</tspan></text><text class="cls-10" transform="translate(0 218.85)">C<tspan class="cls-11" x="23.63" y="0">O</tspan><tspan class="cls-12" x="48.97" y="0">R</tspan><tspan x="71.77" y="0">N </tspan><tspan class="cls-11" x="109.2" y="0">O</tspan><tspan x="134.55" y="0">IL</tspan></text><image width="601" height="1557" transform="translate(55.39) scale(0.11)"/><polygon class="cls-13" points="706 153.02 578.03 280.99 455.96 153.02 706 153.02"/><rect class="cls-13" x="521.36" y="2.45" width="119.24" height="161.58"/><text class="cls-14" transform="translate(467.64 162.72)">2X</text><text class="cls-15" transform="translate(679.98 102.28)">mo<tspan class="cls-16" x="47.69" y="0">r</tspan><tspan x="59.35" y="0">e than extra</tspan><tspan x="16.52" y="33.72">vi</tspan><tspan class="cls-17" x="40.98" y="33.72">r</tspan><tspan x="52.32" y="33.72">gin olive oil</tspan></text><text class="cls-15" transform="translate(182.64 102.28)">Co<tspan class="cls-18" x="42.5" y="0">r</tspan><tspan x="55.29" y="0">n oil could help</tspan><tspan x="7.56" y="33.72">lower choleste</tspan><tspan class="cls-16" x="227.51" y="33.72">r</tspan><tspan x="239.17" y="33.72">ol </tspan></text></g></g></svg> 