<?xml version="1.0" encoding="UTF-8"?> <svg xmlns="http://www.w3.org/2000/svg" viewBox="0 0 156.79 117.46"><defs><style>.cls-1{fill:#d02026;}.cls-2{fill:#231f20;}</style></defs><title>Asset 7</title><g id="Layer_2" data-name="Layer 2"><g id="TYPE"><rect class="cls-1" x="15.39" y="31.56" width="14.68" height="14.68"/><path class="cls-2" d="M49.55,47.16H33V30.64H49.55ZM34.87,45.32H47.71V32.48H34.87Z"/><path class="cls-2" d="M68.11,47.16H51.58V30.64H68.11ZM53.42,45.32H66.26V32.48H53.42Z"/><path class="cls-2" d="M86.66,47.16H70.13V30.64H86.66ZM72,45.32H84.82V32.48H72Z"/><path class="cls-2" d="M105.21,47.16H88.69V30.64h16.52ZM90.53,45.32h12.84V32.48H90.53Z"/><path class="cls-2" d="M123.77,47.16H107.24V30.64h16.53Zm-14.69-1.84h12.85V32.48H109.08Z"/><path class="cls-2" d="M142.32,47.16H125.8V30.64h16.52Zm-14.68-1.84h12.84V32.48H127.64Z"/><rect class="cls-1" x="15.39" y="51.72" width="14.68" height="14.68"/><path class="cls-2" d="M49.55,67.32H33V50.79H49.55ZM34.87,65.48H47.71V52.64H34.87Z"/><path class="cls-2" d="M68.11,67.32H51.58V50.79H68.11ZM53.42,65.48H66.26V52.64H53.42Z"/><path class="cls-2" d="M86.66,67.32H70.13V50.79H86.66ZM72,65.48H84.82V52.64H72Z"/><path class="cls-2" d="M105.21,67.32H88.69V50.79h16.52ZM90.53,65.48h12.84V52.64H90.53Z"/><path class="cls-2" d="M123.77,67.32H107.24V50.79h16.53Zm-14.69-1.84h12.85V52.64H109.08Z"/><path class="cls-2" d="M142.32,67.32H125.8V50.79h16.52Zm-14.68-1.84h12.84V52.64H127.64Z"/><rect class="cls-1" x="15.39" y="71.87" width="14.68" height="14.68"/><path class="cls-2" d="M49.55,87.48H33V71H49.55ZM34.87,85.63H47.71V72.79H34.87Z"/><path class="cls-2" d="M68.11,87.48H51.58V71H68.11ZM53.42,85.63H66.26V72.79H53.42Z"/><path class="cls-2" d="M86.66,87.48H70.13V71H86.66ZM72,85.63H84.82V72.79H72Z"/><path class="cls-2" d="M105.21,87.48H88.69V71h16.52ZM90.53,85.63h12.84V72.79H90.53Z"/><path class="cls-2" d="M123.77,87.48H107.24V71h16.53Zm-14.69-1.85h12.85V72.79H109.08Z"/><path class="cls-2" d="M142.32,87.48H125.8V71h16.52Zm-14.68-1.85h12.84V72.79H127.64Z"/><rect class="cls-1" x="15.39" y="92.03" width="14.68" height="14.68"/><path class="cls-2" d="M49.55,107.63H33V91.11H49.55Zm-14.68-1.84H47.71V93H34.87Z"/><path class="cls-2" d="M68.11,107.63H51.58V91.11H68.11Zm-14.69-1.84H66.26V93H53.42Z"/><path class="cls-2" d="M86.66,107.63H70.13V91.11H86.66ZM72,105.79H84.82V93H72Z"/><path class="cls-2" d="M105.21,107.63H88.69V91.11h16.52Zm-14.68-1.84h12.84V93H90.53Z"/><path class="cls-2" d="M123.77,107.63H107.24V91.11h16.53Zm-14.69-1.84h12.85V93H109.08Z"/><path class="cls-2" d="M142.32,107.63H125.8V91.11h16.52Zm-14.68-1.84h12.84V93H127.64Z"/><path class="cls-2" d="M156.79,117.46H0V5.48H156.79ZM1.84,115.62H155V7.32H1.84Z"/><rect class="cls-2" x="30.08" y="20.76" width="96.64" height="1.84"/><path class="cls-2" d="M14,13.26a6.63,6.63,0,1,1,6.63-6.63H18.81A4.79,4.79,0,1,0,14,11.42Z"/><path class="cls-2" d="M21.59,13.26a6.63,6.63,0,1,1,6.63-6.63H26.38a4.79,4.79,0,1,0-4.79,4.79Z"/><path class="cls-2" d="M29.17,13.26A6.63,6.63,0,1,1,35.8,6.63H34a4.79,4.79,0,1,0-4.79,4.79Z"/><path class="cls-2" d="M36.74,13.26a6.63,6.63,0,1,1,6.63-6.63H41.53a4.79,4.79,0,1,0-4.79,4.79Z"/><path class="cls-2" d="M44.31,13.26A6.63,6.63,0,1,1,51,6.63H49.1a4.79,4.79,0,1,0-4.79,4.79Z"/><path class="cls-2" d="M51.89,13.26a6.63,6.63,0,1,1,6.63-6.63H56.68a4.79,4.79,0,1,0-4.79,4.79Z"/><path class="cls-2" d="M59.46,13.26a6.63,6.63,0,1,1,6.63-6.63H64.25a4.79,4.79,0,1,0-4.79,4.79Z"/><path class="cls-2" d="M67,13.26a6.63,6.63,0,1,1,6.63-6.63H71.82A4.79,4.79,0,1,0,67,11.42Z"/><path class="cls-2" d="M74.61,13.26a6.63,6.63,0,1,1,6.63-6.63H79.4a4.79,4.79,0,1,0-4.79,4.79Z"/><path class="cls-2" d="M82.18,13.26a6.63,6.63,0,1,1,6.64-6.63H87a4.79,4.79,0,1,0-4.79,4.79Z"/><path class="cls-2" d="M89.76,13.26a6.63,6.63,0,1,1,6.63-6.63H94.55a4.79,4.79,0,1,0-4.79,4.79Z"/><path class="cls-2" d="M97.33,13.26A6.63,6.63,0,1,1,104,6.63h-1.84a4.79,4.79,0,1,0-4.79,4.79Z"/><path class="cls-2" d="M104.91,13.26a6.63,6.63,0,1,1,6.63-6.63h-1.85a4.79,4.79,0,1,0-4.78,4.79Z"/><path class="cls-2" d="M112.48,13.26a6.63,6.63,0,1,1,6.63-6.63h-1.84a4.79,4.79,0,1,0-4.79,4.79Z"/><path class="cls-2" d="M120.05,13.26a6.63,6.63,0,1,1,6.63-6.63h-1.84a4.79,4.79,0,1,0-4.79,4.79Z"/><path class="cls-2" d="M127.63,13.26a6.63,6.63,0,1,1,6.63-6.63h-1.84a4.79,4.79,0,1,0-4.79,4.79Z"/><path class="cls-2" d="M135.2,13.26a6.63,6.63,0,1,1,6.63-6.63H140a4.79,4.79,0,1,0-4.79,4.79Z"/><path class="cls-2" d="M142.77,13.26a6.63,6.63,0,1,1,6.64-6.63h-1.85a4.79,4.79,0,1,0-4.79,4.79Z"/></g></g></svg> 