<?xml version="1.0" encoding="UTF-8"?> <svg xmlns="http://www.w3.org/2000/svg" viewBox="0 0 92.83 114.93"><defs><style>.cls-1{fill:#f7be00;}.cls-2{fill:#231f20;}.cls-3{fill:#f47208;}.cls-4{fill:#034c3a;}.cls-5{fill:#d02026;}</style></defs><title>Asset 3</title><g id="Layer_2" data-name="Layer 2"><g id="Nav"><path class="cls-1" d="M92.59,72.28c-.18-1.45-.43-2.9-.75-4.32-1.17-5.18-3.4-9.95-7.43-13.5-3.08-2.72-7.06-4.23-10-7.11a10,10,0,0,1-2-2.6l-4.71,4.79.36.36A19,19,0,0,1,73,60.83c1.38,9.63-.32,19.47-6.23,27.37A34.06,34.06,0,0,1,53.87,98.59C49.09,100.81,44,102.23,39,104v7.32c10.67,6.34,23.08,3.35,34-2.13C85.89,101.85,94.41,87.26,92.59,72.28Z"></path><path class="cls-2" d="M39.93,113l-1.42-.85A27.45,27.45,0,0,1,35,109.72a2.09,2.09,0,0,1-.91-2.06c0-.16,0-.31,0-.46,0-1,.07-2.3,1.73-3,.85-.35,1.77-.7,2.82-1.08l1.26-.46ZM38,105.4l-1.48.58h0c-.49.2-.52.27-.55,1.27,0,.16,0,.33,0,.51a1.07,1.07,0,0,0,0,.31,2.76,2.76,0,0,0,.22.19c.59.48,1.2.94,1.82,1.37Z"></path><path class="cls-2" d="M67.69,50.87,67,50.21l-1-1c-6.11-5.9-6.63-6.79-6.08-7.75,1.89-3.32,6.76-6.86,7.3-7.25a1.06,1.06,0,0,1,1.06-.1c1.21.51,3.8,4.78,4.31,8.23a6.19,6.19,0,0,0,.63,2l.31.61Zm-5.92-8.78a64.16,64.16,0,0,0,5.56,5.79l.33.32,3.6-3.65a7.77,7.77,0,0,1-.53-1.9h0a15.21,15.21,0,0,0-2.93-6.48A27.47,27.47,0,0,0,61.77,42.09Z"></path><path class="cls-2" d="M41.26,107.81c-1.34,0-2.69-.06-4.06-.18l.17-1.89c10.91,1,20.62-2.12,28.08-9A41.79,41.79,0,0,0,78,73.31C81,56.51,65.81,44,65.66,43.89l1.18-1.47c.67.54,16.19,13.31,13,31.22A43.57,43.57,0,0,1,66.72,98.18,36.84,36.84,0,0,1,41.26,107.81Z"></path><path class="cls-3" d="M21.71,57.19c0,10.56-10.44,48.21-10.44,48.21S.68,68.41.68,57.85A10.47,10.47,0,0,1,11.27,47.27C16.1,47.27,21.71,49,21.71,57.19Z"></path><path class="cls-2" d="M12.06,109.41H10.47L.86,63.93c-.8-3.78-1.8-8.48.92-12.52a11.8,11.8,0,0,1,9.3-5.15h.37a11.8,11.8,0,0,1,9.31,5.15c2.71,4,1.72,8.74.92,12.52Zm-.79-61.27a9.93,9.93,0,0,0-7.92,4.32C1.08,55.84,2,59.93,2.71,63.54L11.27,104l8.56-40.49c.76-3.61,1.63-7.7-.64-11.08A9.93,9.93,0,0,0,11.27,48.14Z"></path><path class="cls-2" d="M11.18,67.78C4.94,67.78.74,62.63.68,62.56l1.48-1.18c.26.32,6.54,7.95,15,2.63l1,1.6A12.81,12.81,0,0,1,11.18,67.78Z"></path><path class="cls-2" d="M11.17,76.49a13.52,13.52,0,0,1-8-2.9l1.15-1.51a10.52,10.52,0,0,0,10.82,1.7l.73,1.75A12,12,0,0,1,11.17,76.49Z"></path><path class="cls-2" d="M11.13,85.22A12.38,12.38,0,0,1,5.4,83.76l.87-1.68A10.34,10.34,0,0,0,12,83.3l.17,1.88C11.8,85.21,11.47,85.22,11.13,85.22Z"></path><path class="cls-2" d="M10.1,93.9a12.62,12.62,0,0,1-2.53-.51l.57-1.81a10.19,10.19,0,0,0,2.13.43Z"></path><path class="cls-2" d="M10.6,53.19C9.31,47.87,10.21,41.78,13.13,36A44.11,44.11,0,0,1,26.45,20.52l1.1,1.54A42.27,42.27,0,0,0,14.82,36.89c-2.72,5.34-3.56,11-2.38,15.85Z"></path><path class="cls-4" d="M12,34.08a25.91,25.91,0,0,1-.12-11.88c.36-1.64.74-4.51,2.84-2.85,1.27,1,1.75,3.29,2.15,4.73a1.53,1.53,0,0,0,3-.4c-.2-5.5-.78-12.18,2-17.17.58-1,1.6-2.68,2.81-3,1.94-.56,2.52,2.16,3,3.6a26.94,26.94,0,0,1,1.45,9.08c0,2.23,3.38,2.22,3.45,0a8.78,8.78,0,0,1,4.87-7.93c2.68-1.28,7.19-1.54,9.36.91,2.55,2.9-2,7-4.29,8.4-3,1.89-6.51,2.78-9.92,3.63-1.43.36-1.93,2.72-.44,3.38A6,6,0,0,1,35.4,27.1c.74,1.63-.68,2.52-2,3a16.72,16.72,0,0,1-9.43.39c-2-.44-3.54,2.51-1.48,3.51,1.15.56,3.47,1.66,1.17,2.53a7.37,7.37,0,0,1-4.36.11,1.88,1.88,0,0,0-1,3.63c3.08,1,7.67.71,9.74-2.2,2.26-3.16-1-6.07-3.61-7.39l-1.48,3.51C27.56,35.36,34.39,35.5,38,31.7s0-8.66-3.92-10.36l-.44,3.39c5.1-1.29,10.52-2.88,14.25-6.83,3.09-3.26,5-8.38,1-11.77-3.35-2.92-8.64-3-12.56-1.31a12,12,0,0,0-7.19,11.33h3.45C32.51,11.37,30-4.78,22.1,1.38c-6.33,4.93-5.79,15.21-5.29,22.3l3-.41c-.74-2.31-1.65-4.74-3.57-6.34-1.54-1.29-3.83-2-5.26-.16-1.56,2-1.86,5.5-2,8a29.34,29.34,0,0,0,1.27,9.85.93.93,0,0,0,1.79-.5Z"></path><path class="cls-5" d="M45.54,62.69s14.32-12.38,19.36,0S52.48,93,46.17,86.69h0C39.9,93,22.41,75.08,27.44,62.69s19.36,0,19.36,0Z"></path><path class="cls-2" d="M46,51.61V62.77L42.86,51.61H46m0-1.5H42.86A1.5,1.5,0,0,0,41.42,52l3.15,11.16A1.5,1.5,0,0,0,46,64.27l.21,0a1.49,1.49,0,0,0,1.29-1.48V51.61a1.5,1.5,0,0,0-1.5-1.5Z"></path></g></g></svg> 