<?xml version="1.0" encoding="UTF-8"?> <svg xmlns="http://www.w3.org/2000/svg" id="Layer_1" data-name="Layer 1" viewBox="0 0 82 82"><defs><style>.cls-1{fill:none;stroke:#034c3a;stroke-miterlimit:10;stroke-width:3px;}.cls-2{fill:#034c3a;}</style></defs><title>circle5</title><circle class="cls-1" cx="41" cy="41" r="39.5"/><path class="cls-2" d="M36.88,79.08c.32-5.36,1.4-11.93-3.31-15.73-3.48-2.8-5.86-5.41-5.72-10.18C28,47.58,29.27,41.85,30,36.31c.8-5.84,2.36-17.54,2.36-17.54a2,2,0,0,1,3.91.28V53.38a2,2,0,0,0,4,0V18.61a2,2,0,0,1,2-2h.14a2,2,0,0,1,2,2l0,34.77a2,2,0,1,0,4,0V19.05a2,2,0,0,1,3.91-.28s1.56,11.7,2.36,17.54c.75,5.54,2,11.27,2.17,16.86.15,4.77-2.24,7.38-5.72,10.18-4.7,3.8-3.63,10.37-3.3,15.73L42,82Z" transform="translate(-1.3 -0.58)"/></svg> 