<?xml version="1.0" encoding="UTF-8"?> <svg xmlns="http://www.w3.org/2000/svg" id="Layer_1" data-name="Layer 1" viewBox="0 0 82 82"><defs><style>.cls-1,.cls-3{fill:none;stroke:#034c3a;stroke-miterlimit:10;}.cls-1{stroke-width:3px;}.cls-2{fill:#f7be00;}</style></defs><title>circle3</title><circle class="cls-1" cx="41" cy="41" r="39.5"/><polyline class="cls-1" points="17.37 73 17.37 19.67 64.7 19.67 64.7 72.75"/><rect class="cls-2" x="14.29" y="16.22" width="53.49" height="13.13"/><line class="cls-3" x1="25.83" y1="60.08" x2="56.24" y2="60.08"/><line class="cls-3" x1="25.83" y1="57.87" x2="56.24" y2="57.87"/><line class="cls-3" x1="25.83" y1="55.67" x2="56.24" y2="55.67"/><line class="cls-3" x1="25.83" y1="62.29" x2="56.24" y2="62.29"/><line class="cls-3" x1="25.83" y1="64.5" x2="56.24" y2="64.5"/><line class="cls-3" x1="25.83" y1="66.71" x2="56.24" y2="66.71"/><line class="cls-3" x1="25.83" y1="68.92" x2="56.24" y2="68.92"/><line class="cls-3" x1="30.64" y1="71.12" x2="51.42" y2="71.12"/><line class="cls-3" x1="18.16" y1="36.82" x2="63.91" y2="36.82"/><line class="cls-3" x1="18.16" y1="43.95" x2="63.91" y2="43.95"/><line class="cls-3" x1="18.16" y1="51.08" x2="63.91" y2="51.08"/><line class="cls-3" x1="25.28" y1="47.52" x2="38.96" y2="47.52"/><line class="cls-3" x1="51.14" y1="47.52" x2="56.61" y2="47.52"/><line class="cls-3" x1="25.28" y1="40.38" x2="38.96" y2="40.38"/><line class="cls-3" x1="51.14" y1="40.38" x2="56.61" y2="40.38"/><line class="cls-3" x1="25.28" y1="33.25" x2="38.96" y2="33.25"/><line class="cls-3" x1="51.14" y1="33.25" x2="56.61" y2="33.25"/></svg> 