<?xml version="1.0" encoding="UTF-8"?> <svg xmlns="http://www.w3.org/2000/svg" id="Layer_1" data-name="Layer 1" viewBox="0 0 82 82"><defs><style>.cls-1{fill:#f7be00;}.cls-2{fill:none;stroke:#034c3a;stroke-miterlimit:10;stroke-width:3px;}.cls-3{font-size:28.44px;fill:#034c3a;font-family:MuseoSlab-700, Museo Slab;font-weight:700;}</style></defs><title>circle4</title><path class="cls-1" d="M61.75,46.8A46.32,46.32,0,0,0,59,41.31c-2.06-3.73-4.13-6.46-6.19-10.18L46.27,19.36C45,17,42,11.83,42.07,11.78l-2.64,5L33.47,28c-2.13,4-4.25,7-6.37,11-2.23,4.2-5,8.62-5,13.46,0,10.6,9.14,19.2,20.41,19.2S62.9,63,62.9,52.44A15,15,0,0,0,61.75,46.8Z" transform="translate(-1.48 -1.03)"/><circle class="cls-2" cx="41" cy="41" r="39.5"/><text class="cls-3" transform="translate(31.18 59.51)">E</text></svg> 