<?xml version="1.0" encoding="UTF-8"?> <svg xmlns="http://www.w3.org/2000/svg" viewBox="0 0 136.15 102.95"><defs><style>.cls-1{fill:#f47208;}.cls-2{fill:#231f20;}</style></defs><title>Asset 10</title><g id="Layer_2" data-name="Layer 2"><g id="TYPE"><path class="cls-1" d="M136.15,45.53S99.7,5.25,73.45,16.37,29.63,60.85,29.63,60.85,57.4,99.65,87.8,89.52,136.15,45.53,136.15,45.53Z"/><path class="cls-2" d="M103.18,68.57C95.72,60.76,93,46.22,96.76,34.75l1.17.67c-3.58,10.8-1,24.49,6,31.84Z"/><path class="cls-2" d="M95.26,70.79C87.8,63,85,48.44,88.84,37l1.17.67c-3.58,10.8-1,24.49,6,31.84Z"/><path class="cls-2" d="M1.18,98.71l-.42-.17A1.33,1.33,0,0,1,0,97.34a3,3,0,0,1,1.21-2.43c.27-.18.53-.35.8-.51C6.29,85.87,8.37,74.53,7.9,62.05s-3.28-24.9-6-36.8L1.5,23.44l1.3.82c8.57,5.4,16.27,12.93,23.73,20.21,2.43,2.37,4.84,5,5.4,8.77l-1.25.32c-.47-3.19-2.59-5.49-4.91-7.75-7-6.86-14.28-13.94-22.21-19.2C6.15,38,8.72,49.82,9.18,62,9.62,73.86,7.81,84.76,4,93.32a44.67,44.67,0,0,1,9.89-3c2.16-.47,4.38-1,6.51-1.64,5.94-1.93,12.63-6.93,13.55-15.2l1.27.24c-1,9.09-8.17,14.53-14.51,16.58A66.63,66.63,0,0,1,14.12,92c-3.81.82-7.73,1.67-11.25,3.71-.45.88-.92,1.73-1.42,2.54Z"/><path class="cls-2" d="M80.24,103l-.86,0-12.27-.49a2.23,2.23,0,0,1-2.17-1.23,4.09,4.09,0,0,1-.22-1.86c.24-4,.61-8.09,1.1-12.08l1.26.26c-.48,4-.85,8-1.08,11.94a2.6,2.6,0,0,0,0,.9c.15.33.7.39,1.11.4l12.27.49a5,5,0,0,0,3.25-.6c1.36-1,1.93-3.26,2.39-5.51l2.89-14,1.23.43-2.89,14c-.53,2.6-1.21,5.24-3,6.54A5,5,0,0,1,80.24,103Z"/><path class="cls-2" d="M46.9,25.2l-.12-1.66c4.57-.58,8.25-4.89,11.8-9,1.07-1.25,2.18-2.54,3.29-3.72C71.44.69,84.67-2.62,96.4,2.14a2.79,2.79,0,0,1,1.37,1,4.69,4.69,0,0,1,.58,2.48l.7,18.77-1.28.08L97.08,5.69a3.14,3.14,0,0,0-.27-1.45,1.64,1.64,0,0,0-.79-.5C84.69-.86,71.91,2.33,62.68,12.07c-1.09,1.15-2.19,2.43-3.25,3.67C55.73,20.08,51.89,24.57,46.9,25.2Z"/></g></g></svg> 