<?xml version="1.0" encoding="UTF-8"?> <svg xmlns="http://www.w3.org/2000/svg" viewBox="0 0 143.9 115.28"><defs><style>.cls-1{fill:#f7be00;}.cls-2{fill:#231f20;}.cls-3{fill:#bf5608;}</style></defs><title>Asset 8</title><g id="Layer_2" data-name="Layer 2"><g id="TYPE"><rect class="cls-1" x="39.29" y="16.57" width="1.75" height="17.82"></rect><rect class="cls-1" x="16.37" width="1.75" height="17.82"></rect><rect class="cls-1" x="0.14" y="16.57" width="1.75" height="17.82"></rect><path class="cls-1" d="M.3,73.22s14.89,1.26,18.82,9S21.3,99.41,21.3,99.41s-12.72.42-17.74-8S.3,73.22.3,73.22Z"></path><path class="cls-1" d="M41.4,73.22s-14.89,1.26-18.83,9S20.4,99.41,20.4,99.41s12.72.42,17.74-8S41.4,73.22,41.4,73.22Z"></path><path class="cls-1" d="M.3,52.83s14.89,1.26,18.82,9S21.3,79,21.3,79s-12.72.42-17.74-8S.3,52.83.3,52.83Z"></path><path class="cls-1" d="M41.4,52.83s-14.89,1.26-18.83,9S20.4,79,20.4,79s12.72.42,17.74-8S41.4,52.83,41.4,52.83Z"></path><path class="cls-1" d="M.3,32.28s14.89,1.26,18.82,9S21.3,58.47,21.3,58.47s-12.72.42-17.74-8S.3,32.28.3,32.28Z"></path><path class="cls-1" d="M41.4,32.28s-14.89,1.26-18.83,9S20.4,58.47,20.4,58.47s12.72.42,17.74-8S41.4,32.28,41.4,32.28Z"></path><path class="cls-1" d="M17.41,14.33S7.76,25.75,10.43,34,21.08,47.7,21.08,47.7s9.28-8.7,6.86-18.22S17.41,14.33,17.41,14.33Z"></path><rect class="cls-1" x="15.4" y="46.49" width="15.45" height="46.96"></rect><rect class="cls-2" x="19.97" y="56.48" width="1.75" height="58.81"></rect><rect class="cls-3" x="91.42" y="16.57" width="1.75" height="17.82"></rect><rect class="cls-3" x="68.5" width="1.75" height="17.82"></rect><rect class="cls-3" x="52.27" y="16.57" width="1.75" height="17.82"></rect><path class="cls-3" d="M52.43,73.22s14.89,1.26,18.82,9,2.18,17.24,2.18,17.24-12.72.42-17.74-8S52.43,73.22,52.43,73.22Z"></path><path class="cls-3" d="M93.53,73.22s-14.9,1.26-18.83,9-2.17,17.24-2.17,17.24,12.71.42,17.73-8S93.53,73.22,93.53,73.22Z"></path><path class="cls-3" d="M52.43,52.83s14.89,1.26,18.82,9S73.43,79,73.43,79s-12.72.42-17.74-8S52.43,52.83,52.43,52.83Z"></path><path class="cls-3" d="M93.53,52.83s-14.9,1.26-18.83,9S72.53,79,72.53,79s12.71.42,17.73-8S93.53,52.83,93.53,52.83Z"></path><path class="cls-3" d="M52.43,32.28s14.89,1.26,18.82,9,2.18,17.23,2.18,17.23-12.72.42-17.74-8S52.43,32.28,52.43,32.28Z"></path><path class="cls-3" d="M93.53,32.28s-14.9,1.26-18.83,9-2.17,17.23-2.17,17.23,12.71.42,17.73-8S93.53,32.28,93.53,32.28Z"></path><path class="cls-3" d="M69.54,14.33s-9.65,11.42-7,19.64S73.2,47.7,73.2,47.7s9.29-8.7,6.87-18.22S69.54,14.33,69.54,14.33Z"></path><rect class="cls-3" x="67.53" y="46.49" width="15.45" height="46.96"></rect><rect class="cls-2" x="72.1" y="56.48" width="1.75" height="58.81"></rect><rect class="cls-1" x="141.5" y="16.57" width="1.75" height="17.82"></rect><rect class="cls-1" x="118.57" width="1.75" height="17.82"></rect><rect class="cls-1" x="102.34" y="16.57" width="1.75" height="17.82"></rect><path class="cls-1" d="M102.5,73.22s14.89,1.26,18.83,9,2.17,17.24,2.17,17.24-12.72.42-17.74-8S102.5,73.22,102.5,73.22Z"></path><path class="cls-1" d="M143.6,73.22s-14.89,1.26-18.82,9-2.18,17.24-2.18,17.24,12.72.42,17.74-8S143.6,73.22,143.6,73.22Z"></path><path class="cls-1" d="M102.5,52.83s14.89,1.26,18.83,9S123.5,79,123.5,79s-12.72.42-17.74-8S102.5,52.83,102.5,52.83Z"></path><path class="cls-1" d="M143.6,52.83s-14.89,1.26-18.82,9S122.6,79,122.6,79s12.72.42,17.74-8S143.6,52.83,143.6,52.83Z"></path><path class="cls-1" d="M102.5,32.28s14.89,1.26,18.83,9,2.17,17.23,2.17,17.23-12.72.42-17.74-8S102.5,32.28,102.5,32.28Z"></path><path class="cls-1" d="M143.6,32.28s-14.89,1.26-18.82,9-2.18,17.23-2.18,17.23,12.72.42,17.74-8S143.6,32.28,143.6,32.28Z"></path><path class="cls-1" d="M119.61,14.33S110,25.75,112.63,34,123.28,47.7,123.28,47.7s9.29-8.7,6.86-18.22S119.61,14.33,119.61,14.33Z"></path><rect class="cls-1" x="117.61" y="46.49" width="15.45" height="46.96"></rect><rect class="cls-2" x="122.18" y="56.48" width="1.75" height="58.81"></rect></g></g></svg> 