<?xml version="1.0" encoding="UTF-8"?> <svg xmlns="http://www.w3.org/2000/svg" viewBox="0 0 111.56 115.13"><defs><style>.cls-1{fill:#f7be00;}.cls-2{fill:#231f20;}</style></defs><title>Asset 13</title><g id="Layer_2" data-name="Layer 2"><g id="TYPE"><path class="cls-1" d="M54,1.73a55.81,55.81,0,0,0-24.9,5.85,46.18,46.18,0,0,1-7.53,91.75,47.74,47.74,0,0,1-4.93-.26A55.84,55.84,0,1,0,54,1.73Z"></path><path class="cls-1" d="M54,0A57.57,57.57,0,0,0,25.88,7.32L23.5,8.65l2.71.29A44.45,44.45,0,0,1,21.56,97.6a45.88,45.88,0,0,1-7.33-.6l-2.68-.45,1.93,1.91A57.57,57.57,0,1,0,54,0Zm0,113.4A55.49,55.49,0,0,1,16.63,99.07a47.74,47.74,0,0,0,4.93.26A46.18,46.18,0,0,0,29.09,7.58,55.84,55.84,0,1,1,54,113.4Z"></path><path class="cls-2" d="M21,53H38.7l-18.35,19A.87.87,0,0,0,21,73.39H40.74a.87.87,0,0,0,0-1.73H23l18.35-19a.87.87,0,0,0-.62-1.47H21A.87.87,0,0,0,21,53Z"></path><path class="cls-2" d="M15,54.68a.87.87,0,0,0-.87-.87H2.91L14.72,41.6a.86.86,0,0,0-.62-1.47H.87a.87.87,0,1,0,0,1.73H12.06L.24,54.08a.86.86,0,0,0,.63,1.46H14.1A.86.86,0,0,0,15,54.68Z"></path><path class="cls-2" d="M34.2,28.74a.85.85,0,0,0-.79-.53H24.24a.87.87,0,0,0,0,1.74h7.13l-7.76,8a.86.86,0,0,0-.17.94.87.87,0,0,0,.8.53h9.17a.87.87,0,0,0,0-1.73H26.28l7.75-8A.86.86,0,0,0,34.2,28.74Z"></path></g></g></svg> 