<?xml version="1.0" encoding="UTF-8"?> <svg xmlns="http://www.w3.org/2000/svg" xmlns:xlink="http://www.w3.org/1999/xlink" viewBox="0 0 143.03 116.03"><defs><style>.cls-1{fill:none;}.cls-2{fill:#bf5608;}.cls-3{fill:#231f20;}.cls-4{clip-path:url(#clip-path);}</style><clipPath id="clip-path"><path class="cls-1" d="M65,41.53s14.16,50.4-15.39,67.89S147,111.64,147,111.64L162,48.57,87.54,22.71Z"/></clipPath></defs><title>Asset 11</title><g id="Layer_2" data-name="Layer 2"><g id="TYPE"><path class="cls-2" d="M68.88,70.26c0,21.35-12.16,43.72-33.2,44.3-18.79.51-34-18.79-34.63-40.13C.12,41.43,22.72.8,34.78.8,47.22.8,68.88,45.53,68.88,70.26Z"/><path class="cls-2" d="M73,110.58c-21.34,0-43.71-12.16-44.29-33.2-.52-18.79,18.79-34,40.13-34.63,33-.93,73.63,21.67,73.63,33.73C142.44,88.92,97.71,110.58,73,110.58Z"/><path class="cls-3" d="M34.9,116h-.06A33.48,33.48,0,0,1,15,107.68c-8.42-7.61-12-18-13.57-25.28C-1.26,69.63-.15,55.87,4.72,41.53A128.76,128.76,0,0,1,24.84,5a12.85,12.85,0,0,1,9.71-5H35a12.86,12.86,0,0,1,9.75,5C53.77,16.75,60.77,29.38,65,41.53c5,14.37,6.1,28.12,3.42,40.87-1.55,7.33-5.15,17.67-13.58,25.28A33.48,33.48,0,0,1,35,116ZM34.61,1.78a11.11,11.11,0,0,0-8.37,4.31C-.46,40.69.33,68.52,3.17,82c1.48,7.08,4.95,17,13,24.33a31.75,31.75,0,0,0,18.71,7.89,31.72,31.72,0,0,0,18.7-7.89c8.07-7.28,11.54-17.25,13-24.33C69.45,68.62,70.17,40.91,43.3,6.09a11.06,11.06,0,0,0-8.38-4.31Z"/><path class="cls-3" d="M27,37l-.25-.25c-.22-.23-.58.12-.35.35l.25.25c.23.23.58-.13.35-.35Z"/><path class="cls-3" d="M35.68,115.56l-1.56-.85C48.49,88,47.65,58.63,44.4,38.66A162.81,162.81,0,0,0,33.78,1.26L35.4.52A165.23,165.23,0,0,1,46.15,38.33C49.44,58.58,50.3,88.42,35.68,115.56Z"/><path class="cls-3" d="M43.8,114l-1.45-1A86.69,86.69,0,0,0,57.79,72.88,95,95,0,0,0,54.88,37.5,115.58,115.58,0,0,0,39,2.59l1.43-1A117.19,117.19,0,0,1,56.58,37a96.7,96.7,0,0,1,3,36.05A88.39,88.39,0,0,1,43.8,114Z"/><path class="cls-3" d="M33.5,115.56C18.88,88.42,19.73,58.58,23,38.33A164.63,164.63,0,0,1,33.78.52l1.62.74a163.1,163.1,0,0,0-10.63,37.4c-3.24,20-4.08,49.37,10.29,76.05Z"/><path class="cls-3" d="M25.38,114A88.39,88.39,0,0,1,9.62,73a96.9,96.9,0,0,1,3-36.05A117.07,117.07,0,0,1,28.76,1.54l1.43,1A115.73,115.73,0,0,0,14.29,37.5a95.21,95.21,0,0,0-2.9,35.38A86.69,86.69,0,0,0,26.83,113Z"/><rect class="cls-3" x="33.89" y="1.63" width="1.78" height="112.58"/><g class="cls-4"><path class="cls-3" d="M27,77.56V77.5a33.49,33.49,0,0,1,8-20c7.47-8.55,17.74-12.33,25-14,12.73-2.9,26.5-2,40.92,2.6a128.84,128.84,0,0,1,36.86,19.5A12.9,12.9,0,0,1,143,75.26v.4a12.84,12.84,0,0,1-4.84,9.84C126.6,94.76,114.1,102,102,106.36c-14.29,5.18-28,6.56-40.81,4.1C53.85,109,43.45,105.61,35.7,97.31A33.51,33.51,0,0,1,27,77.62Zm114.23-2.22a11.12,11.12,0,0,0-4.46-8.29c-35-26.11-62.85-24.86-76.31-21.79-7.06,1.61-17,5.24-24.11,13.43A31.78,31.78,0,0,0,28.8,77.53,31.72,31.72,0,0,0,37,96.1c7.42,8,17.44,11.24,24.55,12.61,13.46,2.6,41.18,2.85,75.53-24.6a11.09,11.09,0,0,0,4.18-8.45Z"/><path class="cls-3" d="M105.94,68.37l.24-.25c.23-.23-.13-.58-.36-.35l-.24.26c-.22.23.14.57.36.34Z"/><path class="cls-3" d="M27.51,78.33l.81-1.57c26.93,13.92,56.31,12.58,76.22,9a163.7,163.7,0,0,0,37.22-11.25l.76,1.6A164,164,0,0,1,104.9,87.5C84.71,91.14,54.89,92.5,27.51,78.33Z"/><path class="cls-3" d="M29.22,86.43l1-1.47A86.72,86.72,0,0,0,70.55,99.72a95,95,0,0,0,35.32-3.5,115.81,115.81,0,0,0,34.65-16.48l1.07,1.41a117.33,117.33,0,0,1-35.17,16.76,96.76,96.76,0,0,1-36,3.58A88.39,88.39,0,0,1,29.22,86.43Z"/><path class="cls-3" d="M27.47,76.15c26.89-15.07,56.74-14.72,77-11.77a165,165,0,0,1,38,10.12l-.72,1.62a163.6,163.6,0,0,0-37.57-10c-20-2.9-49.43-3.25-75.87,11.57Z"/><path class="cls-3" d="M28.91,68A88.43,88.43,0,0,1,69.57,51.56a97,97,0,0,1,36.11,2.37,117.27,117.27,0,0,1,35.71,15.56l-1,1.45a115.66,115.66,0,0,0-35.18-15.3,95,95,0,0,0-35.42-2.31A86.71,86.71,0,0,0,30,69.44Z"/><rect class="cls-3" x="28.83" y="75.58" width="112.58" height="1.78" transform="translate(-1.28 1.45) rotate(-0.97)"/></g></g></g></svg> 