<?xml version="1.0" encoding="UTF-8"?> <svg xmlns="http://www.w3.org/2000/svg" xmlns:xlink="http://www.w3.org/1999/xlink" viewBox="0 0 73.72 117.26"><defs><style>.cls-1{fill:none;}.cls-2{fill:#231f20;}.cls-3{fill:#f7be00;}.cls-4{clip-path:url(#clip-path);}.cls-5{fill:#f4f4f5;}</style><clipPath id="clip-path"><polygon class="cls-1" points="39.07 58.63 63.38 58.63 67.72 65.31 68.76 69.23 68.76 114.25 33.69 114.25 33.69 66.62 36.79 62.38 39.07 58.63"/></clipPath></defs><title>Asset 2</title><g id="Layer_2" data-name="Layer 2"><g id="TYPE"><path class="cls-2" d="M16.82,13.64H8.93V5.2H6.24V0H19.51V5.2H16.82Zm-6.11-1.77h4.34V3.43h2.69V1.77H8V3.43h2.7Z"/><rect class="cls-3" x="3.36" y="59.52" width="19.04" height="53.77"/><path class="cls-2" d="M25.75,117.26H0V48.6a12.9,12.9,0,0,1,6.24-11V6.12H19.51V37.56a12.88,12.88,0,0,1,6.24,11Zm-24-1.78H24V48.6a11.14,11.14,0,0,0-5.78-9.75l-.46-.25V7.89H8V38.6l-.46.25A11.14,11.14,0,0,0,1.77,48.6Z"/><g class="cls-4"><path class="cls-3" d="M34.77,113.36V68a3.31,3.31,0,0,1,.33-1.87,8,8,0,0,1,1-1,14.11,14.11,0,0,0,1.77-1.72A11.29,11.29,0,0,0,40.15,55a20.44,20.44,0,0,0-2.25-6.58c-.16-.31-.31-.63-.46-.95a12.41,12.41,0,0,1-1-5.34v-.57A20.2,20.2,0,0,1,37,35.66a3.35,3.35,0,0,1,.81-1.46l10-8.57V21.2h6.85v4.43l10,8.57a3.25,3.25,0,0,1,.82,1.46A20.2,20.2,0,0,1,66,41.55v.57a12.56,12.56,0,0,1-1,5.34c-.15.32-.31.64-.46.95A20,20,0,0,0,62.34,55a11.29,11.29,0,0,0,2.23,8.44,13.42,13.42,0,0,0,1.76,1.72,7.51,7.51,0,0,1,1.06,1A3.31,3.31,0,0,1,67.72,68v45.34Z"/></g><path class="cls-2" d="M71.54,117.19H31V68a6.9,6.9,0,0,1,1.1-4.18,9.84,9.84,0,0,1,1.63-1.6A10.75,10.75,0,0,0,35,61a7.51,7.51,0,0,0,1.39-5.58,17.12,17.12,0,0,0-1.89-5.35l-.48-1a16.07,16.07,0,0,1-1.33-7v-.56a22.35,22.35,0,0,1,.74-7.13,7,7,0,0,1,1.94-3.13c.06,0,2.49-2.13,4.83-4.13L44,23.87V17.38h14.5v6.49l8.66,7.42a6.92,6.92,0,0,1,1.94,3.13,22.67,22.67,0,0,1,.75,7.13v.56a16.07,16.07,0,0,1-1.33,7l-.48,1a16.63,16.63,0,0,0-1.89,5.35A7.46,7.46,0,0,0,67.53,61a9.34,9.34,0,0,0,1.28,1.22,10.77,10.77,0,0,1,1.63,1.61A6.9,6.9,0,0,1,71.54,68Zm-38.82-1.78H69.77V68a5.27,5.27,0,0,0-.75-3.1,8.6,8.6,0,0,0-1.36-1.33,10.31,10.31,0,0,1-1.5-1.46,9.21,9.21,0,0,1-1.78-6.9,18.38,18.38,0,0,1,2.05-5.92c.16-.33.32-.65.47-1a14.39,14.39,0,0,0,1.17-6.22v-.56A21.49,21.49,0,0,0,67.42,35,5.23,5.23,0,0,0,66,32.64L57,25l-.31-.26V19.15H45.77v5.54l-4.46,3.82-4.84,4.14A5.21,5.21,0,0,0,35.07,35a21.46,21.46,0,0,0-.65,6.55v.56a14.39,14.39,0,0,0,1.17,6.22c.15.33.31.65.46,1a18.16,18.16,0,0,1,2.06,5.92,9.21,9.21,0,0,1-1.78,6.9,11.43,11.43,0,0,1-1.5,1.46,8.19,8.19,0,0,0-1.36,1.33,5.27,5.27,0,0,0-.75,3.1Z"/><path class="cls-2" d="M61.1,19.17H41.38V9.2H61.1ZM43.16,17.4H59.33V11H43.16Z"/><rect class="cls-5" x="29.65" y="75.03" width="43.18" height="30.5"/><path class="cls-2" d="M73.72,106.42H28.77V74.14h45Zm-43.18-1.78h41.4V75.92H30.54Z"/></g></g></svg> 