<?xml version="1.0" encoding="UTF-8"?> <svg xmlns="http://www.w3.org/2000/svg" xmlns:xlink="http://www.w3.org/1999/xlink" viewBox="0 0 101.97 124.86"><defs><style>.cls-1{fill:none;}.cls-2{fill:#231f20;}.cls-3{clip-path:url(#clip-path);}.cls-4{fill:#f7be00;}.cls-5{fill:#d02026;}</style><clipPath id="clip-path"><path class="cls-1" d="M.29,114.4A120,120,0,0,0,92.34,119q3.54-1.26,7-2.72L51.84,5.58Z"></path></clipPath></defs><title>Asset 9</title><g id="Layer_2" data-name="Layer 2"><g id="TYPE"><path class="cls-2" d="M51.67,13.46,95.48,115.62l-.79.34c-2.08.89-4.2,1.72-6.31,2.47a108.54,108.54,0,0,1-83.52-4.15l-.77-.37ZM93.23,114.72,51.6,17.61,6.36,113.1a106.85,106.85,0,0,0,81.45,3.72C89.62,116.18,91.44,115.47,93.23,114.72Z"></path><g class="cls-3"><path class="cls-4" d="M99.29,104.2c-4.65,1.91-9.49,3.86-14.63,3.92-7.48.09-14.59-3.85-22-3.19-4.42.39-8.43,2.36-12.71,3.37a29.66,29.66,0,0,1-13.45,0c-3.44-.81-6.73-2.25-10.28-2.41-4.15-.18-8.13,1.39-12.26,1.82a22,22,0,0,1-11.53-2L50.85,2.63Z"></path><path class="cls-4" d="M99.12,103.57c-4.3.79-8.36,2.61-12.75,2.92-4.21.29-8.24-.81-12.28-1.84a37.87,37.87,0,0,0-10.66-1.6c-4,.16-7.8,1.64-11.63,2.76a28.53,28.53,0,0,1-13.14.88c-3.77-.68-7.28-2.33-11.08-2.81-4.06-.52-7.85.52-11.81,1.2a20.47,20.47,0,0,1-12.13-1.45L4.52,107Q12.86,89.64,21,72.2L47.14,16.69q3-6.36,6-12.72H48.56q8.13,17.17,16.27,34.37Q77.84,65.7,90.92,93l6,12.56c1.53,3.21,6.29.41,4.76-2.78L85.31,68.5q-13-27.34-26.15-54.66l-6-12.54a2.66,2.66,0,0,0-4.57,0Q40.43,18.75,32.22,36.17c-8.69,18.52-17.41,37-26,55.58q-3,6.38-5.91,12.76c-.51,1.1-.43,2.78.88,3.36a24.93,24.93,0,0,0,12,2.25c4.13-.3,8.09-2,12.23-2.08,4.45-.12,8.68,2,13.06,2.65a32,32,0,0,0,12.4-.64C55,109,59,107,63.43,106.7s8.39,1,12.49,1.91c8.32,1.85,16.52,1,23.7-3.85A.65.65,0,0,0,99.12,103.57Z"></path><path class="cls-5" d="M73.11,59.05A15.37,15.37,0,1,1,57.75,74.41,15.38,15.38,0,0,1,73.11,59.05Z"></path><path class="cls-5" d="M31.73,31.4A15.36,15.36,0,1,1,16.37,46.76,15.39,15.39,0,0,1,31.73,31.4Z"></path><path class="cls-5" d="M68.53,29.89A11.87,11.87,0,1,1,56.66,41.76,11.88,11.88,0,0,1,68.53,29.89Z"></path><path class="cls-5" d="M33.61,77A11.87,11.87,0,1,1,21.74,88.85,11.88,11.88,0,0,1,33.61,77Z"></path></g></g></g></svg> 