<?xml version="1.0" encoding="UTF-8"?> <svg xmlns="http://www.w3.org/2000/svg" viewBox="0 0 143.69 115.66"><defs><style>.cls-1{fill:#f7be00;}.cls-2{fill:#034c3a;}.cls-3{fill:#231f20;}</style></defs><title>Asset 6</title><g id="Layer_2" data-name="Layer 2"><g id="TYPE"><circle class="cls-1" cx="47.89" cy="57.85" r="47.89"></circle><circle class="cls-2" cx="47.89" cy="57.85" r="23.78"></circle><path class="cls-3" d="M47.89,105.11A47.26,47.26,0,1,1,95.14,57.85,47.31,47.31,0,0,1,47.89,105.11Zm0-92.78A45.53,45.53,0,1,0,93.42,57.85,45.58,45.58,0,0,0,47.89,12.33Z"></path><path class="cls-3" d="M47.89,81.64A23.79,23.79,0,1,1,71.67,57.85,23.81,23.81,0,0,1,47.89,81.64Zm0-45.85A22.06,22.06,0,1,0,70,57.85,22.09,22.09,0,0,0,47.89,35.79Z"></path><path class="cls-3" d="M114.53,114.85a5.94,5.94,0,0,1-6-6.39l2.74-41.91c.25-4.09-1.29-6.08-3.07-8.39-2-2.61-4.31-5.56-4.31-11.88,0-19.4,4-38.53,9.24-44.49l.56-.62.11.09a2.74,2.74,0,0,1,1.42-.4A2.8,2.8,0,0,1,118,3.52v.15c0,.41,0,38.65,0,57.37s2.38,47.12,2.41,47.4v0a5.94,5.94,0,0,1-6,6.39Zm-.3-111.66c-4.84,5.89-8.59,24.65-8.59,43.09,0,5.73,2,8.32,3.94,10.83s3.72,4.81,3.43,9.56l-2.74,41.9a4.27,4.27,0,1,0,8.52,0c-.05-.63-2.42-28.9-2.42-47.54s-.05-57-.05-57.35V3.62a1.08,1.08,0,0,0-1.08-1,1,1,0,0,0-.79.37Z"></path><path class="cls-3" d="M135.34,1.72c.33,0,.61.37.62.83l.63,27.33a.85.85,0,0,0,.85.82h.32a.81.81,0,0,0,.81-.82l-.21-27.34c0-.45.27-.82.61-.82h0c.34,0,.59.38.62.83l2.37,33c.3,7.38-6.69,4.57-6.69,15.84,0,21.14.2,21.1,3.4,57.12a5.13,5.13,0,1,1-10.24,0c3.18-36,3.37-36,3.37-57.12,0-11.27-7-8.46-6.69-15.84l2.38-33c0-.45.27-.82.61-.83h0c.34,0,.61.37.6.82l-.21,27.34a.82.82,0,0,0,.82.82h.32a.85.85,0,0,0,.84-.82l.63-27.33c0-.46.29-.83.62-.83s.61.37.61.83l.21,27.33a.83.83,0,0,0,.83.82h.32a.84.84,0,0,0,.83-.82l.2-27.33c0-.46.28-.83.61-.83m0-1.72a2.25,2.25,0,0,0-1.8.92,2.23,2.23,0,0,0-3.62,0,2.75,2.75,0,0,0-.22-.26A2.25,2.25,0,0,0,128.11,0h0a2.42,2.42,0,0,0-2.31,2.43l-2.37,33v0c-.17,4.13,1.67,5.83,3.29,7.33s3.4,3.16,3.4,8.58c0,19.07-.15,20.69-2.55,47.68-.25,2.8-.52,5.88-.82,9.28v0a6.86,6.86,0,1,0,13.68,0v0c-.31-3.5-.59-6.66-.85-9.54C137.14,72,137,70.36,137,51.35c0-5.42,1.65-7,3.39-8.58s3.46-3.2,3.29-7.33v0l-2.37-33A2.44,2.44,0,0,0,139,0a2.24,2.24,0,0,0-1.61.67,1.78,1.78,0,0,0-.22.26A2.27,2.27,0,0,0,135.34,0Z"></path></g></g></svg> 