<?xml version="1.0" encoding="UTF-8"?> <svg xmlns="http://www.w3.org/2000/svg" viewBox="0 0 121.67 116.15"><defs><style>.cls-1{fill:#034c3a;}.cls-2{fill:#bf5608;}</style></defs><title>Asset 12</title><g id="Layer_2" data-name="Layer 2"><g id="TYPE"><path class="cls-1" d="M56,28.33,32,44.84,65.47,83.15l26-13.23S82.6,31.08,82.16,30.05,66,38,56,28.33Z"/><path class="cls-2" d="M16.88,26c2.31.2,61.82,73,61.82,73s41.4-.77,41.6,2.11,3.66,12.28-2,12.56c-40.67,2-47.94,2.5-47.94,2.5L1.49,38.81s.62-8.25,4.62-10.76S16.88,26,16.88,26Z"/><path class="cls-2" d="M117.33,115.62h-47L.44,40.15l0-.42c0-.37.52-8.95,6.18-13.09,3-2.21,6.88-2.71,11.49-1.5l-.51,1.93c-4-1.05-7.29-.65-9.79,1.18-4.26,3.1-5.17,9.5-5.34,11.17l68.73,74.2h46a5.26,5.26,0,0,0,1.9-2.59c.8-2.06,1.17-5.71-1.62-11.42l1.8-.88c3.82,7.83,2.23,12.46.94,14.52C119.36,114.62,118.14,115.62,117.33,115.62Z"/><path d="M119.37,100.17H77.18l-.3-.37-60-73.37,0-.4c.64-9,3.76-15.82,9.27-20.28C35-1.43,46.77.12,47.27.19l.86.12v.87a5,5,0,0,1-.1.63c-1.11,5.84-2,16.63,4.66,23.41,5.55,5.65,15.23,7.33,28.78,5l.92-.16L93.18,74.4c3-.13,12.73,0,19.52,6,4.29,3.82,6.53,9.27,6.67,16.18Zm-41.25-2h39.25V96.64c-.13-6.32-2.15-11.27-6-14.71-7.26-6.48-18.77-5.5-18.88-5.49l-.86.08-.21-.84L80.89,32.33c-13.76,2.23-23.72.31-29.63-5.71C46,21.23,44.08,12.53,46,2.08c-3-.19-11.83-.22-18.55,5.23-5,4-7.84,10.25-8.49,18.47Z"/><path d="M32.44,87.19a16.56,16.56,0,0,1-9.06-5.07c-3.62-3.63-7.43-5.4-11.3-5.26C5.93,77.07,1.55,82,1.51,82.06L0,80.75c.2-.23,5-5.64,12-5.89,4.46-.15,8.77,1.81,12.81,5.84a14.59,14.59,0,0,0,7.94,4.51Z"/><path d="M34.24,99.77c-3.29,0-7-1.36-10.86-5.23-3.62-3.62-7.43-5.39-11.3-5.26-6.15.21-10.53,5.15-10.57,5.2L0,93.17c.2-.23,5-5.64,12-5.89,4.46-.15,8.77,1.81,12.81,5.84,5.29,5.29,10.81,6.06,16.39,2.28l1.12,1.66A14.54,14.54,0,0,1,34.24,99.77Z"/><path d="M34.25,112.32c-3.75,0-7.41-1.75-10.87-5.21-3.62-3.62-7.43-5.4-11.3-5.25-6.15.21-10.53,5.15-10.57,5.2L0,105.75c.2-.23,5-5.64,12-5.89,4.46-.15,8.77,1.8,12.81,5.84,3.36,3.36,6.85,4.9,10.38,4.58,6.44-.59,11-7.15,11.09-7.22l1.64,1.13c-.2.31-5.16,7.4-12.53,8.08C35,112.3,34.63,112.32,34.25,112.32Z"/><path d="M84.19,45.69l0-1.63c.32-11.16,5-21,11.42-24,3.46-1.61,7-1.07,10.38,1.57a5.28,5.28,0,0,1,2.27,4.92c-.41,3.52-4.39,7.71-11.83,12.45a107.43,107.43,0,0,1-10.82,6ZM99.6,21.15a7.41,7.41,0,0,0-3.1.71c-5.34,2.49-9.49,11-10.18,20.59,6.51-3.25,19.38-10.72,20-16.14a3.39,3.39,0,0,0-1.53-3.12A8.37,8.37,0,0,0,99.6,21.15Z"/><path d="M85.71,43.78l-1.6-.28c-11-1.91-20.11-8-22.15-14.71-1.1-3.66-.05-7.14,3-10.06a5.29,5.29,0,0,1,5.19-1.55c3.42.91,7,5.44,10.65,13.48a110.57,110.57,0,0,1,4.41,11.56ZM68.89,19a3.69,3.69,0,0,0-2.52,1.17c-2.54,2.4-3.38,5.1-2.49,8,1.7,5.64,9.53,10.95,18.93,13-2.29-6.91-7.87-20.7-13.14-22.09A3,3,0,0,0,68.89,19Z"/><path d="M77.85,55.25c-1.63-9.26,7-12.09,7.08-12.11l.61,1.9c-.29.09-7,2.35-5.72,9.86Z"/><path d="M91.07,55.08c0-.46-.15-11.17-9.17-11.57l.09-2c8.74.38,11.07,9,11.08,13.55Z"/></g></g></svg> 