<?xml version="1.0" encoding="UTF-8"?> <svg xmlns="http://www.w3.org/2000/svg" viewBox="0 0 650.97 622.66"><defs><style>.cls-1{fill:#f3f3f3;}.cls-2{font-size:14.67px;fill:#034c3a;}.cls-2,.cls-5{font-family:HelveticaNeue, Helvetica Neue;}.cls-3{letter-spacing:0.02em;}.cls-4{letter-spacing:-0.02em;}.cls-5{font-size:31.44px;}.cls-21,.cls-24,.cls-5{fill:#054c3a;}.cls-6{letter-spacing:0.02em;}.cls-7{letter-spacing:-0.02em;}.cls-8{fill:#ce2028;}.cls-9{font-size:23.34px;}.cls-20,.cls-9{fill:#fff;}.cls-20,.cls-21,.cls-24,.cls-9{font-family:MuseoSlab-700, Museo Slab;font-weight:700;}.cls-14,.cls-9{letter-spacing:0.2em;}.cls-10{letter-spacing:0.19em;}.cls-11{letter-spacing:0.2em;}.cls-12{letter-spacing:0.19em;}.cls-13{letter-spacing:0.15em;}.cls-15{letter-spacing:0.19em;}.cls-16{letter-spacing:0.19em;}.cls-17{letter-spacing:0.2em;}.cls-18{letter-spacing:0.19em;}.cls-19{fill:#f7be00;}.cls-20{font-size:36.3px;}.cls-21{font-size:114.08px;}.cls-22{font-size:22.82px;letter-spacing:0.2em;}.cls-23{letter-spacing:0.19em;}.cls-24{font-size:25px;letter-spacing:0.2em;}.cls-25{letter-spacing:0.19em;}.cls-26{letter-spacing:0.2em;}.cls-27{letter-spacing:0.19em;}.cls-28{letter-spacing:0.2em;}.cls-29{letter-spacing:0.19em;}</style></defs><title>Asset 9</title><g id="Layer_2" data-name="Layer 2"><g id="ART"><rect class="cls-1" y="46.32" width="650.97" height="576.34"></rect></g><g id="TYPE"><text class="cls-2" transform="translate(40.19 566)">Based on the anaylsis of co<tspan class="cls-3" x="180.95" y="0">r</tspan><tspan x="186.1" y="0">n oil and 2013 USDA comparison of the other cooking oils. </tspan><tspan x="3.67" y="17.6">Co</tspan><tspan class="cls-3" x="22.68" y="17.6">r</tspan><tspan x="27.83" y="17.6">n oil has plant ste</tspan><tspan class="cls-4" x="143.04" y="17.6">r</tspan><tspan x="147.67" y="17.6">ols content of 135.6 mg/serving vs. 30.0 mg/serving for olive oil.</tspan></text><text class="cls-5" transform="translate(50.1 264.68)">Four tablespoons of co<tspan class="cls-6" x="325.45" y="0">r</tspan><tspan x="336.48" y="0">n oil have mo</tspan><tspan class="cls-7" x="524" y="0">r</tspan><tspan x="533.9" y="0">e </tspan><tspan x="16.9" y="37.72">naturally occurring phytoste</tspan><tspan class="cls-7" x="408.14" y="37.72">r</tspan><tspan x="418.04" y="37.72">ols, also </tspan><tspan x="126.64" y="75.45">know as plant ste</tspan><tspan class="cls-7" x="373.5" y="75.45">r</tspan><tspan x="383.4" y="75.45">ols</tspan></text><rect class="cls-8" x="29.4" width="592.16" height="92.63"></rect><text class="cls-9" transform="translate(114.05 40.81)">WHY IS C<tspan class="cls-10" x="148.77" y="0">O</tspan><tspan class="cls-11" x="172.44" y="0">R</tspan><tspan x="193.73" y="0">N </tspan><tspan class="cls-12" x="228.67" y="0">O</tspan><tspan x="252.34" y="0">IL BETTER</tspan><tspan class="cls-13"><tspan x="-32" y="29.96">A</tspan><tspan class="cls-14" x="-11.44" y="29.96">T L</tspan><tspan class="cls-15" x="38.52" y="29.96">O</tspan><tspan class="cls-14" x="62.12" y="29.96">WE</tspan><tspan class="cls-16" x="110.13" y="29.96">R</tspan><tspan class="cls-14" x="131.42" y="29.96">I</tspan><tspan class="cls-12" x="145.5" y="29.96">N</tspan><tspan class="cls-14" x="169.8" y="29.96">G C</tspan><tspan class="cls-10" x="224.96" y="29.96">HO</tspan><tspan class="cls-17" x="273.12" y="29.96">LESTE</tspan><tspan class="cls-18" x="370.34" y="29.96">R</tspan><tspan class="cls-10" x="391.59" y="29.96">O</tspan><tspan class="cls-14" x="415.26" y="29.96">L?</tspan></tspan></text><circle class="cls-19" cx="328.56" cy="450.41" r="36.09"></circle><text class="cls-20" transform="translate(309.13 460.78)">vs</text><text class="cls-21" transform="translate(56.36 488.76)">528<tspan class="cls-22"><tspan x="1.06" y="35.49">MILL</tspan><tspan class="cls-23" x="78.66" y="35.49">I</tspan><tspan x="92.28" y="35.49">GRAMS</tspan></tspan></text><text class="cls-24" transform="translate(63.79 390.63)">C<tspan class="cls-25" x="23.63" y="0">O</tspan><tspan class="cls-26" x="48.97" y="0">R</tspan><tspan x="71.77" y="0">N </tspan><tspan class="cls-27" x="109.2" y="0">O</tspan><tspan class="cls-28" x="134.55" y="0">IL:</tspan></text><text class="cls-21" transform="translate(393.97 489.33)">120<tspan class="cls-22"><tspan x="-1.91" y="34.36">MILL</tspan><tspan class="cls-23" x="75.69" y="34.36">I</tspan><tspan x="89.31" y="34.36">GRAMS</tspan></tspan></text><text class="cls-24" transform="translate(438.63 391.19)">E<tspan class="cls-29" x="21" y="0">V</tspan><tspan x="43.65" y="0">OO:</tspan></text></g><g id="Layer_1-2" data-name="Layer 1"><path class="cls-19" d="M213.84,145.58l-.47.25-24.81,13.11c2.44,4.61,11,7.16,18,3.48,5.16-2.73,8.12-7.84,8.24-12.38,4.9-2.38,23-11.22,28.05-13.88,5.84-3.09,4.16-8.1,4.16-8.1Z"></path><circle class="cls-19" cx="182.33" cy="162.52" r="2.26"></circle><path class="cls-19" d="M190.89,169.56a2.26,2.26,0,1,1-2.26-2.26A2.26,2.26,0,0,1,190.89,169.56Z"></path><circle class="cls-19" cx="186.37" cy="154.19" r="2.26"></circle><circle class="cls-19" cx="180.75" cy="175.13" r="2.26"></circle><path class="cls-19" d="M189.79,180.93a2.26,2.26,0,1,1-2.26-2.26A2.26,2.26,0,0,1,189.79,180.93Z"></path><path class="cls-19" d="M180.06,185.83a2.26,2.26,0,1,1-2.26-2.26A2.26,2.26,0,0,1,180.06,185.83Z"></path><circle class="cls-19" cx="179.09" cy="198.97" r="2.26"></circle><circle class="cls-19" cx="185.27" cy="191.13" r="2.26"></circle><path class="cls-19" d="M196,188.09a2.26,2.26,0,1,1-2.26-2.26A2.26,2.26,0,0,1,196,188.09Z"></path><path class="cls-19" d="M193.15,197.3a2.26,2.26,0,1,1-2.26-2.25A2.27,2.27,0,0,1,193.15,197.3Z"></path><path class="cls-19" d="M288.65,145.58l-.47.25-24.82,13.11c2.44,4.61,11,7.16,18,3.48,5.16-2.73,8.12-7.84,8.24-12.38,4.9-2.38,23-11.22,28.05-13.88,5.84-3.09,4.16-8.1,4.16-8.1Z"></path><circle class="cls-19" cx="257.13" cy="162.52" r="2.26"></circle><path class="cls-19" d="M265.69,169.56a2.26,2.26,0,1,1-2.26-2.26A2.26,2.26,0,0,1,265.69,169.56Z"></path><circle class="cls-19" cx="261.17" cy="154.19" r="2.26"></circle><circle class="cls-19" cx="255.55" cy="175.13" r="2.26"></circle><path class="cls-19" d="M264.59,180.93a2.26,2.26,0,1,1-2.26-2.26A2.26,2.26,0,0,1,264.59,180.93Z"></path><path class="cls-19" d="M254.87,185.83a2.27,2.27,0,1,1-2.26-2.26A2.26,2.26,0,0,1,254.87,185.83Z"></path><circle class="cls-19" cx="253.89" cy="198.97" r="2.26"></circle><circle class="cls-19" cx="260.07" cy="191.13" r="2.26"></circle><path class="cls-19" d="M270.8,188.09a2.26,2.26,0,1,1-2.26-2.26A2.26,2.26,0,0,1,270.8,188.09Z"></path><path class="cls-19" d="M268,197.3a2.26,2.26,0,1,1-2.26-2.25A2.27,2.27,0,0,1,268,197.3Z"></path><path class="cls-19" d="M363.45,145.58l-.47.25-24.81,13.11c2.44,4.61,11,7.16,18,3.48,5.15-2.73,8.12-7.84,8.24-12.38,4.89-2.38,23-11.22,28-13.88,5.85-3.09,4.16-8.1,4.16-8.1Z"></path><circle class="cls-19" cx="331.93" cy="162.52" r="2.26"></circle><path class="cls-19" d="M340.5,169.56a2.27,2.27,0,1,1-2.26-2.26A2.26,2.26,0,0,1,340.5,169.56Z"></path><circle class="cls-19" cx="335.97" cy="154.19" r="2.26"></circle><circle class="cls-19" cx="330.35" cy="175.13" r="2.26"></circle><path class="cls-19" d="M339.4,180.93a2.26,2.26,0,1,1-2.26-2.26A2.26,2.26,0,0,1,339.4,180.93Z"></path><path class="cls-19" d="M329.67,185.83a2.26,2.26,0,1,1-2.26-2.26A2.26,2.26,0,0,1,329.67,185.83Z"></path><circle class="cls-19" cx="328.69" cy="198.97" r="2.26"></circle><circle class="cls-19" cx="334.88" cy="191.13" r="2.26"></circle><path class="cls-19" d="M345.6,188.09a2.26,2.26,0,1,1-2.26-2.26A2.26,2.26,0,0,1,345.6,188.09Z"></path><path class="cls-19" d="M342.76,197.3a2.26,2.26,0,1,1-2.26-2.25A2.27,2.27,0,0,1,342.76,197.3Z"></path><path class="cls-19" d="M438.25,145.58l-.47.25L413,158.94c2.44,4.61,11,7.16,18,3.48,5.16-2.73,8.12-7.84,8.24-12.38,4.89-2.38,23-11.22,28-13.88,5.84-3.09,4.16-8.1,4.16-8.1Z"></path><circle class="cls-19" cx="406.73" cy="162.52" r="2.26"></circle><path class="cls-19" d="M415.3,169.56A2.26,2.26,0,1,1,413,167.3,2.26,2.26,0,0,1,415.3,169.56Z"></path><circle class="cls-19" cx="410.78" cy="154.19" r="2.26"></circle><circle class="cls-19" cx="405.16" cy="175.13" r="2.26"></circle><path class="cls-19" d="M414.2,180.93a2.26,2.26,0,1,1-2.26-2.26A2.26,2.26,0,0,1,414.2,180.93Z"></path><path class="cls-19" d="M404.47,185.83a2.26,2.26,0,1,1-2.26-2.26A2.26,2.26,0,0,1,404.47,185.83Z"></path><circle class="cls-19" cx="403.49" cy="198.97" r="2.26"></circle><circle class="cls-19" cx="409.68" cy="191.13" r="2.26"></circle><path class="cls-19" d="M420.4,188.09a2.26,2.26,0,1,1-2.26-2.26A2.26,2.26,0,0,1,420.4,188.09Z"></path><path class="cls-19" d="M417.56,197.3a2.26,2.26,0,1,1-2.26-2.25A2.27,2.27,0,0,1,417.56,197.3Z"></path></g></g></svg> 