<?xml version="1.0" encoding="UTF-8"?> <svg xmlns="http://www.w3.org/2000/svg" viewBox="0 0 650.97 617.93"><defs><style>.cls-1{fill:#f3f3f3;}.cls-2{font-size:30.76px;}.cls-10,.cls-11,.cls-2{fill:#054c3a;}.cls-2,.cls-8{font-family:HelveticaNeue, Helvetica Neue;}.cls-3{letter-spacing:0.02em;}.cls-4{letter-spacing:-0.07em;}.cls-5{letter-spacing:-0.02em;}.cls-6{letter-spacing:-0.02em;}.cls-7{font-family:HelveticaNeue-Bold, Helvetica Neue;}.cls-10,.cls-12,.cls-17,.cls-7{font-weight:700;}.cls-8{font-weight:400;}.cls-9{fill:#f7be00;}.cls-10{font-size:28.6px;}.cls-10,.cls-12,.cls-17{font-family:MuseoSlab-700, Museo Slab;}.cls-12{font-size:22.91px;}.cls-12,.cls-16,.cls-17{fill:#fff;}.cls-13{letter-spacing:0em;}.cls-14{letter-spacing:-0.03em;}.cls-15{letter-spacing:0em;}.cls-17{font-size:4.4px;letter-spacing:0.03em;}.cls-18{letter-spacing:0.04em;}</style></defs><title>Asset 8</title><g id="Layer_2" data-name="Layer 2"><g id="ART"><rect class="cls-1" y="46.32" width="650.97" height="571.62"></rect></g><g id="TYPE"><text class="cls-2" transform="translate(63.98 140.72)">Just four tablespoons of co<tspan class="cls-3" x="376.61" y="0">r</tspan><tspan x="387.4" y="0">n oil dail</tspan><tspan class="cls-4" x="501.34" y="0">y</tspan><tspan x="514.45" y="0">, </tspan><tspan x="6.21" y="36.91">when compa</tspan><tspan class="cls-5" x="183.98" y="36.91">r</tspan><tspan x="193.67" y="36.91">ed to EVOO, </tspan><tspan class="cls-6" x="374.33" y="36.91">r</tspan><tspan x="384.02" y="36.91">esulted in </tspan><tspan class="cls-7"><tspan x="104.88" y="73.83">a</tspan><tspan class="cls-8" x="122.54" y="73.83"> </tspan><tspan x="131.09" y="73.83">g</tspan><tspan class="cls-5" x="149.88" y="73.83">r</tspan><tspan x="161.29" y="73.83">eater lowering of:</tspan></tspan></text><polygon class="cls-9" points="318.2 433.86 180.5 571.56 49.14 433.86 318.2 433.86"></polygon><rect class="cls-9" x="119.52" y="271.84" width="128.31" height="173.86"></rect><text class="cls-10" transform="translate(143.69 443.84)">“Bad”<tspan x="-43.34" y="32.44">Cholesterol</tspan></text><circle class="cls-11" cx="183.67" cy="349.81" r="50.11"></circle><text class="cls-12" transform="translate(160.71 358.43)">L<tspan class="cls-13" x="14.07" y="0">D</tspan><tspan x="31.85" y="0">L</tspan></text><polygon class="cls-9" points="601.83 433.86 464.13 571.56 332.77 433.86 601.83 433.86"></polygon><rect class="cls-9" x="403.15" y="271.84" width="128.31" height="173.86"></rect><text class="cls-10" transform="translate(432.09 445.89)"><tspan class="cls-14">T</tspan><tspan x="18.36" y="0">ot</tspan><tspan class="cls-15" x="47.25" y="0">a</tspan><tspan x="63.29" y="0">l</tspan><tspan x="-45.93" y="32.44">Cholesterol</tspan></text><circle class="cls-11" cx="468.14" cy="349.81" r="50.11"></circle><path class="cls-16" d="M434.21,350.27l3.92-7.16,8.13-.74,4.07,6.92-4.13,7.54-8.05.48Zm4.5-6.27-3.43,6.26,3.4,6.08,6.95-.41,3.62-6.62-3.5-5.95Z"></path><path class="cls-16" d="M445.38,356.38l3.92-7.16,8.14-.74,3.91,7.19-4,7.28-8.05.48Zm4.5-6.27-3.43,6.27,3.4,6.07,6.95-.41,3.48-6.37-3.37-6.2Z"></path><path class="cls-16" d="M456.68,349l3.86-7.05,8.13-.74,4.07,6.92-4.13,7.54-8.06.48Zm4.44-6.16L457.75,349l3.34,6.18,6.94-.41,3.63-6.62-3.5-5.95Z"></path><path class="cls-16" d="M467.74,355.3l4.23-7.72,7.67,2.31,1.21,8-7.92,2.74Zm4.69-6.6-3.53,6.44,4.29,4.43,6.62-2.29-1-6.66Z"></path><polygon class="cls-16" points="478.99 336.51 479.81 336.05 483.5 342.64 491.29 342.15 494.47 348.64 502.38 348.22 505.85 354.87 513.39 354.43 513.44 355.37 505.3 355.84 501.82 349.19 493.9 349.61 490.72 343.12 482.97 343.62 478.99 336.51"></polygon><polyline class="cls-16" points="453.7 342.14 449.79 349.3 453.46 342.58"></polyline><rect class="cls-16" x="447.67" y="345.25" width="8.16" height="0.94" transform="translate(-68.4 576.04) rotate(-61.31)"></rect><line class="cls-16" x1="476.28" y1="341.98" x2="472.2" y2="348.14"></line><rect class="cls-16" x="470.54" y="344.59" width="7.39" height="0.94" transform="translate(-75.37 549.73) rotate(-56.47)"></rect><line class="cls-16" x1="427.35" y1="350.78" x2="434.75" y2="350.27"></line><rect class="cls-16" x="427.34" y="350.05" width="7.41" height="0.94" transform="translate(-22.96 30.29) rotate(-3.92)"></rect><line class="cls-16" x1="483.24" y1="343.13" x2="479.22" y2="350.25"></line><rect class="cls-16" x="477.14" y="346.22" width="8.18" height="0.94" transform="translate(-57.14 595.57) rotate(-60.58)"></rect><text class="cls-17" transform="matrix(1, -0.05, 0.05, 1, 423.72, 356.3)">H<tspan class="cls-18" x="3.92" y="0">O</tspan></text><rect class="cls-16" x="448.35" y="355.55" width="0.94" height="5.87" transform="translate(-118.58 269.01) rotate(-29.65)"></rect></g><g id="Layer_1-2" data-name="Layer 1"><path class="cls-9" d="M215.73,17.52l-.47.25L190.45,30.88c2.44,4.61,11,7.17,18,3.48,5.16-2.73,8.12-7.84,8.24-12.38,4.89-2.38,23-11.22,28-13.88C250.59,5,248.91,0,248.91,0Z"></path><circle class="cls-9" cx="184.21" cy="34.46" r="2.26"></circle><path class="cls-9" d="M192.78,41.5a2.26,2.26,0,1,1-2.26-2.26A2.26,2.26,0,0,1,192.78,41.5Z"></path><circle class="cls-9" cx="188.26" cy="26.14" r="2.26"></circle><circle class="cls-9" cx="182.63" cy="47.07" r="2.26"></circle><path class="cls-9" d="M191.68,52.87a2.26,2.26,0,1,1-2.26-2.26A2.26,2.26,0,0,1,191.68,52.87Z"></path><path class="cls-9" d="M182,57.77a2.26,2.26,0,1,1-2.26-2.26A2.27,2.27,0,0,1,182,57.77Z"></path><circle class="cls-9" cx="180.97" cy="70.91" r="2.26"></circle><circle class="cls-9" cx="187.16" cy="63.08" r="2.26"></circle><path class="cls-9" d="M197.88,60a2.26,2.26,0,1,1-2.26-2.26A2.27,2.27,0,0,1,197.88,60Z"></path><path class="cls-9" d="M195,69.25A2.26,2.26,0,1,1,192.78,67,2.26,2.26,0,0,1,195,69.25Z"></path><path class="cls-9" d="M290.53,17.52l-.47.25L265.25,30.88c2.44,4.61,11,7.17,18,3.48,5.16-2.73,8.12-7.84,8.24-12.38,4.9-2.38,23-11.22,28.05-13.88C325.39,5,323.71,0,323.71,0Z"></path><circle class="cls-9" cx="259.02" cy="34.46" r="2.26"></circle><path class="cls-9" d="M267.58,41.5a2.26,2.26,0,1,1-2.26-2.26A2.26,2.26,0,0,1,267.58,41.5Z"></path><circle class="cls-9" cx="263.06" cy="26.14" r="2.26"></circle><circle class="cls-9" cx="257.44" cy="47.07" r="2.26"></circle><path class="cls-9" d="M266.48,52.87a2.26,2.26,0,1,1-2.26-2.26A2.26,2.26,0,0,1,266.48,52.87Z"></path><path class="cls-9" d="M256.75,57.77a2.26,2.26,0,1,1-2.26-2.26A2.27,2.27,0,0,1,256.75,57.77Z"></path><circle class="cls-9" cx="255.78" cy="70.91" r="2.26"></circle><circle class="cls-9" cx="261.96" cy="63.08" r="2.26"></circle><path class="cls-9" d="M272.68,60a2.26,2.26,0,1,1-2.26-2.26A2.27,2.27,0,0,1,272.68,60Z"></path><path class="cls-9" d="M269.84,69.25A2.26,2.26,0,1,1,267.58,67,2.26,2.26,0,0,1,269.84,69.25Z"></path><path class="cls-9" d="M365.34,17.52l-.47.25L340.05,30.88c2.44,4.61,11,7.17,18,3.48,5.16-2.73,8.12-7.84,8.24-12.38,4.9-2.38,23-11.22,28.05-13.88C400.19,5,398.51,0,398.51,0Z"></path><circle class="cls-9" cx="333.82" cy="34.46" r="2.26"></circle><path class="cls-9" d="M342.38,41.5a2.26,2.26,0,1,1-2.26-2.26A2.26,2.26,0,0,1,342.38,41.5Z"></path><circle class="cls-9" cx="337.86" cy="26.14" r="2.26"></circle><circle class="cls-9" cx="332.24" cy="47.07" r="2.26"></circle><path class="cls-9" d="M341.28,52.87A2.26,2.26,0,1,1,339,50.61,2.26,2.26,0,0,1,341.28,52.87Z"></path><path class="cls-9" d="M331.56,57.77a2.27,2.27,0,1,1-2.26-2.26A2.27,2.27,0,0,1,331.56,57.77Z"></path><circle class="cls-9" cx="330.58" cy="70.91" r="2.26"></circle><circle class="cls-9" cx="336.76" cy="63.08" r="2.26"></circle><path class="cls-9" d="M347.49,60a2.26,2.26,0,1,1-2.26-2.26A2.27,2.27,0,0,1,347.49,60Z"></path><path class="cls-9" d="M344.64,69.25A2.26,2.26,0,1,1,342.38,67,2.26,2.26,0,0,1,344.64,69.25Z"></path><path class="cls-9" d="M440.14,17.52l-.47.25L414.86,30.88c2.44,4.61,11,7.17,18,3.48C438,31.63,441,26.52,441.11,22c4.89-2.38,23-11.22,28-13.88C475,5,473.31,0,473.31,0Z"></path><circle class="cls-9" cx="408.62" cy="34.46" r="2.26"></circle><path class="cls-9" d="M417.19,41.5a2.27,2.27,0,1,1-2.27-2.26A2.27,2.27,0,0,1,417.19,41.5Z"></path><circle class="cls-9" cx="412.66" cy="26.14" r="2.26"></circle><circle class="cls-9" cx="407.04" cy="47.07" r="2.26"></circle><path class="cls-9" d="M416.09,52.87a2.27,2.27,0,1,1-2.26-2.26A2.26,2.26,0,0,1,416.09,52.87Z"></path><path class="cls-9" d="M406.36,57.77a2.26,2.26,0,1,1-2.26-2.26A2.27,2.27,0,0,1,406.36,57.77Z"></path><circle class="cls-9" cx="405.38" cy="70.91" r="2.26"></circle><circle class="cls-9" cx="411.57" cy="63.08" r="2.26"></circle><path class="cls-9" d="M422.29,60A2.26,2.26,0,1,1,420,57.77,2.27,2.27,0,0,1,422.29,60Z"></path><path class="cls-9" d="M419.45,69.25A2.26,2.26,0,1,1,417.19,67,2.26,2.26,0,0,1,419.45,69.25Z"></path></g></g></svg> 